<svg width="477" height="321" viewBox="0 0 477 321" fill="none" xmlns="http://www.w3.org/2000/svg">
<path d="M315.117 2.79632C314.964 2.72865 314.811 2.6613 314.658 2.59429L384.059 3.05552L428.714 81.2077L428.719 81.2153L428.723 81.2229L474.125 159.401L430.198 238.951L383.831 318.5H306.432C317.259 314.528 326.95 309.026 335.547 301.729C355.296 285.64 364.959 262.843 364.959 234.816C364.959 207.677 356.573 186.412 340.468 169.513L340.447 169.491L340.425 169.469C323.957 153.01 300.278 139.563 268.804 129.874C247.556 121.987 232.304 114.769 223.961 108.263C215.744 101.294 211.496 93.7607 211.496 83.3583C211.496 72.4638 215.423 63.5349 223.317 56.3896C231.13 49.3178 242.34 45.7333 257.588 45.7333C268.084 45.7333 277.985 46.8477 286.85 49.5785L286.859 49.5812L286.868 49.5839C295.726 52.2406 302.299 54.8169 306.862 57.9491L314.128 101.011L314.48 103.095H316.593H358.74H361.24V100.595V35.0387V34.0351L360.546 33.3101C348.373 20.5918 332.956 10.5292 315.117 2.79632ZM40.5539 83.4014H2.49805V3.06514H203.291C195.067 6.9455 187.415 11.7253 180.115 17.8668L180.108 17.8727C160.207 34.7392 149.969 56.6308 149.969 83.3583C149.969 110.534 158.881 131.586 176.328 147.377L176.334 147.383L176.341 147.389C193.809 162.971 219.21 175.818 253.058 187.166C272.34 193.929 285.259 200.561 292.519 207.768C299.685 214.882 303.433 224.111 303.433 235.664C303.433 247.161 299.478 256.071 292.369 262.619C284.783 269.154 274.042 272.724 258.828 272.724C247.17 272.724 236.567 271.064 227.475 267.796C218.534 264.308 210.974 260.393 205.655 255.631L199.822 210.758L199.539 208.58H197.343H153.709H151.209V211.08V278.049V278.948L151.781 279.641C163.966 294.397 179.412 305.339 197.51 313.933C201.094 315.636 204.83 317.157 208.715 318.5H69.1888V284.572L97.4821 278.228L99.4352 277.79V275.789V49.7324V47.2324H96.9352H45.3676H43.0331L42.8735 49.5614L40.5539 83.4014Z" stroke="white" stroke-width="5"/>
</svg>
