<svg width="35" height="40" viewBox="0 0 35 40" fill="none" xmlns="http://www.w3.org/2000/svg">
<path d="M31.1601 20.8404L18.8001 33.2204C17.1797 34.6605 15.0704 35.427 12.9035 35.3632C10.7367 35.2994 8.67608 34.4101 7.14322 32.8773C5.61037 31.3444 4.7211 29.2838 4.65731 27.117C4.59352 24.9501 5.36004 22.8408 6.80008 21.2204L22.8001 5.22042C23.7553 4.31302 25.0225 3.80708 26.3401 3.80708C27.6576 3.80708 28.9248 4.31302 29.8801 5.22042C30.8108 6.1636 31.3326 7.43536 31.3326 8.76042C31.3326 10.0855 30.8108 11.3572 29.8801 12.3004L16.0801 26.0804C15.9435 26.2275 15.7793 26.3462 15.5968 26.4299C15.4144 26.5135 15.2172 26.5603 15.0166 26.5678C14.8161 26.5752 14.616 26.5431 14.4278 26.4732C14.2397 26.4033 14.0672 26.297 13.9201 26.1604C13.773 26.0238 13.6543 25.8596 13.5706 25.6772C13.487 25.4947 13.4402 25.2976 13.4327 25.097C13.4253 24.8964 13.4574 24.6963 13.5273 24.5082C13.5972 24.32 13.7035 24.1475 13.8401 24.0004L24.1001 13.7604C24.4767 13.3838 24.6883 12.873 24.6883 12.3404C24.6883 11.8078 24.4767 11.297 24.1001 10.9204C23.7235 10.5438 23.2127 10.3322 22.6801 10.3322C22.1475 10.3322 21.6367 10.5438 21.2601 10.9204L11.0001 21.2004C10.4867 21.7098 10.0792 22.3158 9.80114 22.9835C9.52307 23.6511 9.37991 24.3672 9.37991 25.0904C9.37991 25.8137 9.52307 26.5297 9.80114 27.1974C10.0792 27.865 10.4867 28.471 11.0001 28.9804C12.0488 29.9794 13.4417 30.5366 14.8901 30.5366C16.3385 30.5366 17.7313 29.9794 18.7801 28.9804L32.5601 15.1804C34.1498 13.4743 35.0153 11.2178 34.9742 8.88615C34.933 6.55454 33.9885 4.32992 32.3395 2.68096C30.6906 1.03201 28.466 0.0874626 26.1343 0.046324C23.8027 0.00518544 21.5462 0.870664 19.8401 2.46042L3.84008 18.4604C1.68247 20.8501 0.530132 23.9801 0.623142 27.1984C0.716153 30.4166 2.04734 33.4749 4.33935 35.736C6.63137 37.997 9.70743 39.2865 12.9266 39.3358C16.1459 39.3851 19.2599 38.1903 21.6201 36.0004L34.0001 23.6404C34.1866 23.4539 34.3345 23.2326 34.4354 22.9889C34.5363 22.7453 34.5883 22.4841 34.5883 22.2204C34.5883 21.9567 34.5363 21.6956 34.4354 21.4519C34.3345 21.2083 34.1866 20.9869 34.0001 20.8004C33.8136 20.6139 33.5922 20.466 33.3486 20.3651C33.1049 20.2642 32.8438 20.2122 32.5801 20.2122C32.3164 20.2122 32.0552 20.2642 31.8116 20.3651C31.5679 20.466 31.3466 20.6139 31.1601 20.8004V20.8404Z" fill="#1A6AFF"/>
</svg>
