<svg width="24" height="24" viewBox="0 0 24 24" fill="none" xmlns="http://www.w3.org/2000/svg">
<path d="M18.0789 0.00958813C21.1646 0.0391515 23.9496 2.7153 23.9799 5.91321C23.993 9.98044 24.018 14.0477 23.9794 18.1144C23.9309 21.1724 21.2754 23.9495 18.0789 23.9799C14.0134 23.993 9.94793 24.018 5.883 23.9794C2.82678 23.9309 0.0506286 21.2742 0.0200131 18.0763C0.00723453 14.0091 -0.0180564 9.94182 0.0205456 5.87512C0.0689978 2.81704 2.72455 0.0402169 5.92107 0.00958813C9.97375 -0.00319604 14.0262 -0.00319604 18.0789 0.00958813ZM5.96074 1.60761C3.70851 1.6148 1.63997 3.54814 1.61734 5.92333C1.60456 9.98044 1.579 14.0375 1.61761 18.0941C1.65301 20.3268 3.59163 22.3595 5.93119 22.3819C9.98653 22.3949 14.0419 22.42 18.0967 22.3816C20.3298 22.3459 22.3602 20.4067 22.3826 18.0662C22.3956 14.0091 22.4207 9.95194 22.3823 5.89537C22.3466 3.6616 20.4112 1.62998 18.0687 1.60761C14.0328 1.59482 9.99665 1.60761 5.96074 1.60761Z" fill="#1A6AFF"/>
<path d="M12.0522 3.00041C15.0645 3.05758 17.681 6.00253 17.2516 9.07452C16.9002 11.5867 14.5306 13.6606 11.9836 13.6606C8.91894 13.6606 6.18035 10.5637 6.74731 7.38787C7.17617 4.98452 9.39219 3.04847 11.915 3.00041C11.9836 2.99986 11.9836 2.99986 12.0522 3.00041ZM11.9362 4.65724C9.51374 4.70336 7.54523 7.5649 8.67915 9.9213C9.67277 11.9869 12.7972 12.6271 14.5119 10.9888C16.5162 9.07397 15.4564 4.7227 12.031 4.65724C11.9836 4.65696 11.9836 4.65696 11.9362 4.65724ZM12.0657 14.7656C15.3261 14.8106 18.4676 16.7535 19.9199 19.7457C20.2256 20.3754 19.6071 21.2225 18.9009 20.9413C18.377 20.7325 18.2347 20.0418 17.8987 19.5507C15.8704 16.5856 11.4759 15.5439 8.31891 17.4324C7.10451 18.1588 6.11971 19.2511 5.5059 20.5304C5.5059 20.5304 5.22421 20.9786 4.8003 20.999C4.15204 21.03 3.74053 20.3135 4.18732 19.4698C5.6856 16.6389 8.78003 14.7507 12.0657 14.7656Z" fill="#1A6AFF"/>
</svg>
