<svg width="15" height="24" viewBox="0 0 15 24" fill="none" xmlns="http://www.w3.org/2000/svg">
<path d="M7.5 0C3.36448 0 0 3.38371 0 7.54286C0 14.2225 6.66853 23.3381 6.95251 23.7228C7.08102 23.8972 7.2841 24 7.5 24C7.7159 24 7.91898 23.8972 8.04749 23.7228C8.33147 23.3381 15 14.2225 15 7.54286C15 3.38371 11.6355 0 7.5 0ZM7.5 22.126C5.90249 19.79 1.36364 12.6991 1.36364 7.54286C1.36364 4.14007 4.11638 1.37143 7.5 1.37143C10.8836 1.37143 13.6364 4.14007 13.6364 7.54286C13.6364 12.6991 9.09751 19.79 7.5 22.126Z" fill="white"/>
<path d="M7.5 3C5.01874 3 3 4.79427 3 7C3 9.20573 5.01874 11 7.5 11C9.98126 11 12 9.20573 12 7C12 4.79427 9.98126 3 7.5 3ZM7.5 9.66667C5.84583 9.66667 4.5 8.47038 4.5 7C4.5 5.52962 5.84583 4.33333 7.5 4.33333C9.15417 4.33333 10.5 5.52962 10.5 7C10.5 8.47038 9.15417 9.66667 7.5 9.66667Z" fill="white"/>
</svg>
