<svg width="24" height="18" viewBox="0 0 24 18" fill="none" xmlns="http://www.w3.org/2000/svg">
<path d="M21.6565 0.0231959L11.9953 0.0463918L2.33412 0H2.32941C1.03059 0 0 1.20155 0 2.70464V15.2954C0 16.7985 1.03059 18 2.32941 18H21.6706C22.9694 18 24 16.7985 24 15.2954V2.70464C24 1.20155 22.9788 0.0231959 21.6565 0.0231959ZM20.8988 1.87887L12.2682 9.65876L12.2353 9.6866L12.2071 9.71907C12.1035 9.83041 11.9812 9.84433 11.9153 9.84433C11.8494 9.84433 11.7271 9.82577 11.6282 9.70979L11.6 9.67732L3.35059 1.84175L11.9953 1.89742L20.8988 1.87887ZM21.6706 16.1443H2.32941C2.16471 16.1443 1.88235 15.8381 1.88235 15.2954V3.00155L10.24 10.9624C10.6635 11.4263 11.2612 11.6954 11.8965 11.7046H11.9247C12.5506 11.7046 13.1341 11.4495 13.5624 11.0041L22.1271 3.27526V15.2954C22.1176 15.8381 21.8353 16.1443 21.6706 16.1443Z" fill="#1A6AFF"/>
</svg>
