<svg width="24" height="24" viewBox="0 0 24 24" fill="none" xmlns="http://www.w3.org/2000/svg">
<path d="M13.2 10.7998H6C5.68174 10.7998 5.37652 10.9263 5.15147 11.1513C4.92643 11.3764 4.8 11.6816 4.8 11.9998C4.8 12.3181 4.92643 12.6233 5.15147 12.8483C5.37652 13.0734 5.68174 13.1998 6 13.1998H13.2C13.5183 13.1998 13.8235 13.0734 14.0485 12.8483C14.2736 12.6233 14.4 12.3181 14.4 11.9998C14.4 11.6816 14.2736 11.3764 14.0485 11.1513C13.8235 10.9263 13.5183 10.7998 13.2 10.7998ZM18 5.99992H6C5.68174 5.99992 5.37652 6.12634 5.15147 6.35138C4.92643 6.57642 4.8 6.88164 4.8 7.1999C4.8 7.51816 4.92643 7.82337 5.15147 8.04842C5.37652 8.27346 5.68174 8.39988 6 8.39988H18C18.3183 8.39988 18.6235 8.27346 18.8485 8.04842C19.0736 7.82337 19.2 7.51816 19.2 7.1999C19.2 6.88164 19.0736 6.57642 18.8485 6.35138C18.6235 6.12634 18.3183 5.99992 18 5.99992ZM20.4 0H3.6C2.64522 0 1.72955 0.379279 1.05442 1.0544C0.379285 1.72952 0 2.64518 0 3.59995V15.5998C0 16.5545 0.379285 17.4702 1.05442 18.1453C1.72955 18.8205 2.64522 19.1997 3.6 19.1997H17.508L21.948 23.6517C22.0601 23.7629 22.1931 23.8509 22.3393 23.9106C22.4855 23.9703 22.6421 24.0006 22.8 23.9997C22.9574 24.0037 23.1136 23.9708 23.256 23.9037C23.4751 23.8136 23.6627 23.6608 23.7951 23.4643C23.9275 23.2678 23.9988 23.0366 24 22.7997V3.59995C24 2.64518 23.6207 1.72952 22.9456 1.0544C22.2705 0.379279 21.3548 0 20.4 0ZM21.6 19.9077L18.852 17.1478C18.7399 17.0365 18.6069 16.9486 18.4607 16.8888C18.3145 16.8291 18.1579 16.7989 18 16.7998H3.6C3.28174 16.7998 2.97652 16.6733 2.75147 16.4483C2.52643 16.2233 2.4 15.918 2.4 15.5998V3.59995C2.4 3.28169 2.52643 2.97647 2.75147 2.75143C2.97652 2.52639 3.28174 2.39997 3.6 2.39997H20.4C20.7183 2.39997 21.0235 2.52639 21.2485 2.75143C21.4736 2.97647 21.6 3.28169 21.6 3.59995V19.9077Z" fill="#1A6AFF"/>
</svg>
