<svg width="18" height="18" viewBox="0 0 18 18" fill="none" xmlns="http://www.w3.org/2000/svg">
<path d="M13.4167 15.9999C12.8501 15.9999 12.0543 15.795 10.8626 15.1293C9.41344 14.3168 8.29254 13.5667 6.85122 12.1294C5.46156 10.7409 4.78531 9.84193 3.83884 8.11999C2.7696 6.17577 2.95187 5.15665 3.15562 4.72109C3.39826 4.2005 3.75641 3.88914 4.21934 3.58009C4.48228 3.40785 4.76054 3.2602 5.05058 3.13902C5.07961 3.12654 5.1066 3.11464 5.13069 3.10391C5.27436 3.0392 5.49203 2.9414 5.76776 3.04587C5.95177 3.11493 6.11605 3.25625 6.3732 3.51016C6.90056 4.03017 7.62122 5.18828 7.88708 5.75704C8.06557 6.14037 8.1837 6.39341 8.18399 6.67721C8.18399 7.00947 8.01681 7.2657 7.81394 7.54224C7.77592 7.59418 7.73819 7.6438 7.70162 7.69197C7.48074 7.98216 7.43228 8.06602 7.4642 8.21575C7.52892 8.51667 8.01159 9.41246 8.80481 10.2038C9.59803 10.9951 10.4682 11.4472 10.7703 11.5116C10.9264 11.545 11.0121 11.4945 11.3116 11.2659C11.3546 11.2331 11.3987 11.1991 11.4448 11.1652C11.7542 10.935 11.9986 10.7723 12.3231 10.7723H12.3248C12.6072 10.7723 12.849 10.8947 13.2495 11.0967C13.7719 11.3602 14.9651 12.0714 15.4884 12.5992C15.7429 12.8558 15.8849 13.0194 15.9542 13.2031C16.0587 13.4797 15.9603 13.6964 15.8962 13.8415C15.8855 13.8656 15.8736 13.892 15.8611 13.9213C15.7389 14.2108 15.5904 14.4884 15.4173 14.7507C15.1088 15.212 14.7962 15.5693 14.2743 15.8121C14.0064 15.9389 13.7131 16.0031 13.4167 15.9999Z" fill="#1A6AFF"/>
</svg>
