<svg width="2154" height="1726" viewBox="0 0 2154 1726" fill="none" xmlns="http://www.w3.org/2000/svg">
<g opacity="0.44">
<path d="M109.218 1377.06L148.152 1333.93C186.745 1289.86 265.057 1201.4 338.833 1103.72C412.609 1006.04 483.758 897.564 586.522 880.903C688.945 863.289 825.232 936.872 927.996 920.211C1030.42 902.597 1101.91 795.075 1208.08 787.946C1314.26 780.817 1457.71 874.417 1571.38 888.258C1684.72 901.145 1770.53 833.657 1843.97 735.023C1917.74 637.341 1981.73 508.85 2062.67 431.185C2143.61 353.521 2243.75 326.066 2293.25 312.493" stroke="url(#paint0_linear_125_38)" stroke-width="2"/>
<path d="M-10.2811 1294.34C-10.2811 1294.34 120.47 801.478 374.569 665.301C513.387 590.905 694.007 580.586 796.771 563.925C899.194 546.311 996.799 546.516 1087.53 497.747C1225.97 423.337 1278.65 379.302 1362.77 310.958C1477.54 217.703 1860.9 212.889 1978.9 155.123C2098.13 96.758 2195.69 135.453 2324.46 1.37546" stroke="url(#paint1_linear_125_38)" stroke-width="2"/>
<path d="M103.528 1373.12C140.608 1332.05 142.164 1326.18 145.233 1319.5C185.058 1270.85 264.221 1179.12 340.534 1082.84C414.102 988.042 485.666 883.724 587.125 867.191C688.259 849.751 821.43 919.509 921.747 903.245C1024.17 885.631 1096.9 783.239 1202.34 774.127C1306.76 765.565 1445.65 853.298 1555.87 865.106C1665.76 876.006 1749.11 810.394 1821.05 714.829C1894.05 619.579 1960.92 496.038 2043.95 421.116C2126.99 346.193 2228.32 319.301 2278.28 304.999C2331.11 289.293 2335.75 291.136 2341.89 284.751" stroke="url(#paint2_linear_125_38)" stroke-width="2"/>
<path d="M97.8373 1369.18C133.063 1330.16 136.177 1318.43 142.315 1305.07C183.37 1251.84 263.387 1156.83 342.236 1061.97C415.596 970.045 487.575 869.884 587.728 853.48C687.573 836.214 817.628 902.147 915.498 886.279C1017.92 868.665 1091.9 771.403 1196.6 760.308C1299.26 750.315 1433.59 832.18 1540.35 841.955C1646.8 850.867 1727.69 787.131 1798.14 694.636C1870.36 601.817 1940.11 483.227 2025.24 411.047C2110.37 338.866 2212.9 312.537 2263.31 297.506C2319.46 279.667 2328.75 283.352 2341.02 270.583" stroke="url(#paint3_linear_125_38)" stroke-width="2"/>
<path d="M92.1469 1365.24C125.519 1328.28 130.189 1310.68 139.396 1290.64C181.683 1232.83 262.551 1134.54 343.938 1041.09C417.09 952.048 489.484 856.044 588.332 839.768C686.887 822.676 813.826 884.784 909.25 869.313C1011.67 851.699 1086.89 759.566 1190.86 746.489C1291.76 735.063 1421.54 811.061 1524.83 818.803C1627.83 825.728 1706.27 763.867 1775.23 674.442C1846.66 584.054 1919.3 470.416 2006.52 400.977C2093.74 331.539 2197.48 305.772 2248.34 290.011C2307.81 270.04 2321.75 275.568 2340.14 256.414" stroke="url(#paint4_linear_125_38)" stroke-width="2"/>
<path d="M86.4565 1361.3C117.975 1326.39 124.201 1302.92 136.477 1276.21C179.995 1213.82 261.716 1112.26 345.64 1020.21C418.584 934.051 491.392 842.204 588.935 826.058C686.202 809.139 810.024 867.421 903.001 852.347C1005.42 834.733 1081.89 747.731 1185.12 732.67C1284.26 719.812 1409.48 789.943 1509.31 795.652C1608.87 800.589 1684.85 740.605 1752.31 654.249C1822.97 566.292 1898.49 457.605 1987.8 390.909C2077.12 324.212 2182.06 299.007 2233.38 282.518C2296.16 260.413 2314.74 267.784 2339.27 242.245" stroke="url(#paint5_linear_125_38)" stroke-width="2"/>
<path d="M80.7659 1357.36C110.43 1324.51 118.213 1295.17 133.558 1261.78C178.308 1194.81 260.881 1089.97 347.341 999.334C420.077 916.054 493.301 828.364 589.538 812.346C685.516 795.601 806.222 850.058 896.752 835.381C999.175 817.767 1076.88 735.894 1179.38 718.851C1276.76 704.561 1397.43 768.825 1493.8 772.5C1589.91 775.45 1663.43 717.341 1729.4 634.055C1799.27 548.529 1877.67 444.793 1969.09 380.839C2060.5 316.885 2166.64 292.242 2218.41 275.024C2284.51 250.786 2307.74 259.999 2338.4 228.076" stroke="url(#paint6_linear_125_38)" stroke-width="2"/>
<path d="M75.0754 1353.42C102.886 1322.62 112.225 1287.42 130.639 1247.35C176.62 1175.8 260.046 1067.68 349.043 978.457C421.571 898.057 495.209 814.524 590.141 798.634C684.83 782.064 802.42 832.696 890.503 818.415C992.926 800.801 1071.88 724.058 1173.64 705.032C1269.26 689.31 1385.37 747.706 1478.28 749.349C1570.94 750.311 1642.01 694.078 1706.48 613.861C1775.58 530.767 1856.86 431.982 1950.37 370.77C2043.88 309.558 2151.22 285.477 2203.44 267.53C2272.86 241.159 2300.74 252.215 2337.53 213.907" stroke="url(#paint7_linear_125_38)" stroke-width="2"/>
<path d="M69.3851 1349.48C95.3412 1320.74 106.237 1279.66 127.721 1232.92C174.933 1156.79 259.211 1045.4 350.745 957.58C423.065 880.06 497.118 800.684 590.745 784.923C684.144 768.526 798.618 815.333 884.254 801.449C986.677 783.835 1066.87 712.222 1167.9 691.213C1261.76 674.059 1373.31 726.588 1462.76 726.198C1551.98 725.172 1620.59 670.815 1683.57 593.668C1751.88 513.004 1836.05 419.171 1931.66 360.701C2027.26 302.231 2135.8 278.713 2188.47 260.036C2261.22 231.533 2293.73 244.431 2336.66 199.739" stroke="url(#paint8_linear_125_38)" stroke-width="2"/>
<path d="M63.6947 1345.54C87.7968 1318.85 100.249 1271.91 124.802 1218.49C173.245 1137.78 258.376 1023.11 352.447 936.703C424.559 862.063 499.027 786.844 591.348 771.211C683.458 754.989 794.816 797.97 878.006 784.483C980.428 766.869 1061.87 700.386 1162.16 677.394C1254.26 658.807 1361.26 705.47 1447.24 703.046C1533.02 700.033 1599.17 647.552 1660.65 573.474C1728.19 495.242 1815.24 406.36 1912.94 350.632C2010.64 294.904 2120.38 271.948 2173.5 252.543C2249.57 221.906 2286.73 236.647 2335.79 185.57" stroke="url(#paint9_linear_125_38)" stroke-width="2"/>
<path d="M58.004 1341.6C80.2521 1316.96 94.2612 1264.16 121.883 1204.06C171.557 1118.77 257.541 1000.82 354.148 915.826C426.053 844.066 500.935 773.004 591.951 757.499C682.772 741.451 791.013 780.607 871.756 767.516C974.179 749.902 1056.86 688.549 1156.42 663.575C1246.75 643.556 1349.2 684.351 1431.73 679.894C1514.06 674.893 1577.75 624.288 1637.74 553.28C1704.49 477.479 1794.43 393.548 1894.22 340.562C1994.02 287.576 2104.96 265.183 2158.53 245.048C2237.92 212.279 2279.73 228.862 2334.92 171.401" stroke="url(#paint10_linear_125_38)" stroke-width="2"/>
<path d="M52.3136 1337.67C72.7077 1315.08 88.2733 1256.4 118.964 1189.63C169.87 1099.76 256.706 978.539 355.85 894.949C427.546 826.069 502.843 759.164 592.554 743.789C682.087 727.914 787.211 763.245 865.508 750.551C967.93 732.937 1051.86 676.714 1150.68 649.756C1239.25 628.305 1337.15 663.233 1416.21 656.743C1495.09 649.755 1556.33 601.025 1614.82 533.087C1680.8 459.717 1773.62 380.737 1875.51 330.493C1977.4 280.25 2089.53 258.419 2143.56 237.555C2226.27 202.653 2272.72 221.079 2334.04 157.232" stroke="url(#paint11_linear_125_38)" stroke-width="2"/>
<path d="M46.6233 1333.73C65.1634 1313.19 82.2855 1248.65 116.045 1175.19C168.182 1080.75 255.871 956.252 357.552 874.072C429.04 808.072 504.752 745.324 593.158 730.077C681.401 714.376 783.409 745.882 859.259 733.585C961.682 715.971 1046.85 664.878 1144.94 635.937C1231.75 613.054 1325.09 642.115 1400.69 633.592C1476.13 624.616 1534.91 577.762 1591.91 512.893C1657.1 441.955 1752.8 367.926 1856.79 320.424C1960.77 272.922 2074.11 251.654 2128.59 230.061C2214.62 193.026 2265.72 213.295 2333.17 143.063" stroke="url(#paint12_linear_125_38)" stroke-width="2"/>
<path d="M40.9329 1329.79C57.6189 1311.31 76.2977 1240.9 113.126 1160.76C166.495 1061.74 255.036 933.966 359.253 853.195C430.534 790.076 506.661 731.484 593.761 716.366C680.715 700.838 779.607 728.52 853.01 716.619C955.433 699.005 1041.85 653.041 1139.2 622.118C1224.25 597.803 1313.03 620.996 1385.17 610.441C1457.17 599.477 1513.49 554.499 1569 492.7C1633.41 424.192 1731.99 355.115 1838.07 310.355C1944.15 265.595 2058.69 244.889 2113.62 222.568C2202.97 183.399 2258.72 205.511 2332.3 128.895" stroke="url(#paint13_linear_125_38)" stroke-width="2"/>
<path d="M35.2422 1325.85C50.0742 1309.42 70.3096 1233.15 110.207 1146.33C164.807 1042.73 254.2 911.68 360.955 832.318C432.028 772.079 508.569 717.644 594.364 702.654C680.029 687.301 775.805 711.157 846.761 699.653C949.184 682.039 1036.84 641.205 1133.46 608.299C1216.75 582.552 1300.98 599.878 1369.66 587.289C1438.21 574.338 1492.07 531.236 1546.08 472.506C1609.71 406.43 1711.18 342.304 1819.36 300.286C1927.53 258.268 2043.27 238.124 2098.65 215.074C2191.32 173.772 2251.72 197.727 2331.43 114.726" stroke="url(#paint14_linear_125_38)" stroke-width="2"/>
<path d="M29.5519 1321.91C42.5299 1307.54 64.3218 1225.39 107.289 1131.9C163.12 1023.72 253.365 889.393 362.657 811.44C433.522 754.081 510.478 703.804 594.967 688.942C679.343 673.763 772.003 693.794 840.512 682.687C942.935 665.072 1031.84 629.369 1127.72 594.48C1209.25 567.3 1288.92 578.759 1354.14 564.137C1419.24 549.198 1470.65 507.972 1523.17 452.312C1586.02 388.667 1690.37 329.492 1800.64 290.216C1910.91 250.941 2027.85 231.359 2083.69 207.58C2179.67 164.145 2244.71 189.942 2330.56 100.557" stroke="url(#paint15_linear_125_38)" stroke-width="2"/>
<path d="M23.8615 1317.97C34.9855 1305.65 58.3339 1217.64 104.37 1117.47C161.432 1004.71 252.53 867.107 364.359 790.564C435.015 736.085 512.386 689.964 595.571 675.231C678.658 660.226 768.201 676.432 834.264 665.721C936.686 648.107 1026.83 617.533 1121.97 580.661C1201.75 552.049 1276.87 557.641 1338.62 540.987C1400.28 524.059 1449.23 484.709 1500.25 432.119C1562.32 370.905 1669.56 316.681 1781.92 280.148C1894.29 243.614 2012.43 224.595 2068.72 200.086C2168.02 154.519 2237.71 182.158 2329.69 86.3885" stroke="url(#paint16_linear_125_38)" stroke-width="2"/>
<path d="M18.1711 1314.03C27.4412 1303.76 52.3462 1209.89 101.451 1103.04C159.745 985.698 251.695 844.82 366.061 769.686C436.509 718.087 514.295 676.124 596.174 661.519C677.972 646.688 764.399 659.069 828.015 648.755C930.438 631.141 1021.82 605.697 1116.23 566.842C1194.25 536.798 1264.81 536.523 1323.11 517.835C1381.32 498.92 1427.81 461.446 1477.34 411.925C1538.63 353.142 1648.75 303.869 1763.21 270.078C1877.67 236.287 1997.01 217.83 2053.75 192.592C2156.37 144.892 2230.71 174.374 2328.82 72.2193" stroke="url(#paint17_linear_125_38)" stroke-width="2"/>
<path d="M12.4807 1310.09C19.8967 1301.88 46.3583 1202.13 98.5323 1088.61C158.057 966.688 250.86 822.534 367.762 748.809C438.003 700.09 516.204 662.284 596.777 647.808C677.286 633.15 760.597 641.706 821.766 631.789C924.189 614.175 1016.82 593.86 1110.49 553.023C1186.75 521.547 1252.75 515.404 1307.59 494.683C1362.36 473.781 1406.39 438.183 1454.42 391.732C1514.93 335.38 1627.93 291.058 1744.49 260.009C1861.05 228.96 1981.59 211.065 2038.78 185.098C2144.73 135.265 2223.7 166.59 2327.94 58.0504" stroke="url(#paint18_linear_125_38)" stroke-width="2"/>
<path d="M6.79004 1306.15C12.3521 1299.99 40.3702 1194.38 95.6132 1074.18C156.37 947.678 250.025 800.248 369.464 727.932C439.497 682.094 518.112 648.444 597.38 634.097C676.6 619.613 756.795 624.343 815.517 614.823C917.94 597.209 1011.81 582.024 1104.75 539.204C1179.25 506.295 1240.7 494.286 1292.07 471.532C1343.39 448.642 1384.97 414.919 1431.51 371.538C1491.24 317.618 1607.12 278.247 1725.77 249.94C1844.43 221.632 1966.17 204.3 2023.81 177.605C2133.08 125.638 2216.7 158.806 2327.07 43.8817" stroke="url(#paint19_linear_125_38)" stroke-width="2"/>
<path d="M1.09973 1302.21C4.80774 1298.11 34.3824 1186.63 92.6945 1059.75C154.682 928.668 249.19 777.962 371.166 707.055C440.991 664.097 520.02 634.604 597.984 620.385C675.914 606.075 752.993 606.981 809.268 597.857C911.691 580.243 1006.81 570.188 1099.01 525.385C1171.75 491.044 1228.64 473.168 1276.55 448.381C1324.43 423.503 1363.55 391.656 1408.59 351.345C1467.54 299.855 1586.31 265.436 1707.06 239.871C1827.8 214.306 1950.74 197.536 2008.84 170.111C2121.43 116.012 2209.7 151.022 2326.2 29.7131" stroke="url(#paint20_linear_125_38)" stroke-width="2"/>
<path d="M-4.5907 1298.28C-2.73669 1296.22 28.3946 1178.88 89.7757 1045.32C152.995 909.658 248.355 755.675 372.867 686.178C442.484 646.1 521.929 620.764 598.587 606.674C675.229 592.538 749.191 589.618 803.02 580.891C905.442 563.277 1001.8 558.352 1093.27 511.566C1164.25 475.793 1216.59 452.049 1261.04 425.229C1305.47 398.364 1342.13 368.393 1385.68 331.151C1443.85 282.093 1565.5 252.625 1688.34 229.801C1811.18 206.978 1935.32 190.771 1993.87 162.617C2109.78 106.385 2202.69 143.237 2325.33 15.5442" stroke="url(#paint21_linear_125_38)" stroke-width="2"/>
</g>
<defs>
<linearGradient id="paint0_linear_125_38" x1="1277.12" y1="1056.86" x2="1158.34" y2="623.647" gradientUnits="userSpaceOnUse">
<stop stop-color="#1A6AFF" stop-opacity="0.75"/>
<stop offset="1" stop-color="#B0C8E8" stop-opacity="0.22"/>
</linearGradient>
<linearGradient id="paint1_linear_125_38" x1="1263.45" y1="945.123" x2="1096.97" y2="337.912" gradientUnits="userSpaceOnUse">
<stop stop-color="#1A6AFF" stop-opacity="0.75"/>
<stop offset="1" stop-color="#B0C8E8" stop-opacity="0.22"/>
</linearGradient>
<linearGradient id="paint2_linear_125_38" x1="1300.04" y1="1045.07" x2="1179" y2="603.577" gradientUnits="userSpaceOnUse">
<stop stop-color="#1A6AFF" stop-opacity="0.75"/>
<stop offset="1" stop-color="#B0C8E8" stop-opacity="0.22"/>
</linearGradient>
<linearGradient id="paint3_linear_125_38" x1="1298.21" y1="1040.08" x2="1174.89" y2="590.294" gradientUnits="userSpaceOnUse">
<stop stop-color="#1A6AFF" stop-opacity="0.75"/>
<stop offset="1" stop-color="#B0C8E8" stop-opacity="0.22"/>
</linearGradient>
<linearGradient id="paint4_linear_125_38" x1="1296.38" y1="1035.08" x2="1170.79" y2="577.011" gradientUnits="userSpaceOnUse">
<stop stop-color="#1A6AFF" stop-opacity="0.75"/>
<stop offset="1" stop-color="#B0C8E8" stop-opacity="0.22"/>
</linearGradient>
<linearGradient id="paint5_linear_125_38" x1="1294.55" y1="1030.08" x2="1166.69" y2="563.728" gradientUnits="userSpaceOnUse">
<stop stop-color="#1A6AFF" stop-opacity="0.75"/>
<stop offset="1" stop-color="#B0C8E8" stop-opacity="0.22"/>
</linearGradient>
<linearGradient id="paint6_linear_125_38" x1="1292.72" y1="1025.08" x2="1162.59" y2="550.444" gradientUnits="userSpaceOnUse">
<stop stop-color="#1A6AFF" stop-opacity="0.75"/>
<stop offset="1" stop-color="#B0C8E8" stop-opacity="0.22"/>
</linearGradient>
<linearGradient id="paint7_linear_125_38" x1="1290.89" y1="1020.09" x2="1158.49" y2="537.161" gradientUnits="userSpaceOnUse">
<stop stop-color="#1A6AFF" stop-opacity="0.75"/>
<stop offset="1" stop-color="#B0C8E8" stop-opacity="0.22"/>
</linearGradient>
<linearGradient id="paint8_linear_125_38" x1="1289.06" y1="1015.09" x2="1154.39" y2="523.878" gradientUnits="userSpaceOnUse">
<stop stop-color="#1A6AFF" stop-opacity="0.75"/>
<stop offset="1" stop-color="#B0C8E8" stop-opacity="0.22"/>
</linearGradient>
<linearGradient id="paint9_linear_125_38" x1="1287.23" y1="1010.09" x2="1150.29" y2="510.595" gradientUnits="userSpaceOnUse">
<stop stop-color="#1A6AFF" stop-opacity="0.75"/>
<stop offset="1" stop-color="#B0C8E8" stop-opacity="0.22"/>
</linearGradient>
<linearGradient id="paint10_linear_125_38" x1="1285.4" y1="1005.09" x2="1146.18" y2="497.311" gradientUnits="userSpaceOnUse">
<stop stop-color="#1A6AFF" stop-opacity="0.75"/>
<stop offset="1" stop-color="#B0C8E8" stop-opacity="0.22"/>
</linearGradient>
<linearGradient id="paint11_linear_125_38" x1="1283.57" y1="1000.1" x2="1142.08" y2="484.028" gradientUnits="userSpaceOnUse">
<stop stop-color="#1A6AFF" stop-opacity="0.75"/>
<stop offset="1" stop-color="#B0C8E8" stop-opacity="0.22"/>
</linearGradient>
<linearGradient id="paint12_linear_125_38" x1="1281.74" y1="995.098" x2="1137.98" y2="470.745" gradientUnits="userSpaceOnUse">
<stop stop-color="#1A6AFF" stop-opacity="0.75"/>
<stop offset="1" stop-color="#B0C8E8" stop-opacity="0.22"/>
</linearGradient>
<linearGradient id="paint13_linear_125_38" x1="1279.91" y1="990.101" x2="1133.88" y2="457.462" gradientUnits="userSpaceOnUse">
<stop stop-color="#1A6AFF" stop-opacity="0.75"/>
<stop offset="1" stop-color="#B0C8E8" stop-opacity="0.22"/>
</linearGradient>
<linearGradient id="paint14_linear_125_38" x1="1278.08" y1="985.103" x2="1129.78" y2="444.178" gradientUnits="userSpaceOnUse">
<stop stop-color="#1A6AFF" stop-opacity="0.75"/>
<stop offset="1" stop-color="#B0C8E8" stop-opacity="0.22"/>
</linearGradient>
<linearGradient id="paint15_linear_125_38" x1="1276.25" y1="980.105" x2="1125.68" y2="430.895" gradientUnits="userSpaceOnUse">
<stop stop-color="#1A6AFF" stop-opacity="0.75"/>
<stop offset="1" stop-color="#B0C8E8" stop-opacity="0.22"/>
</linearGradient>
<linearGradient id="paint16_linear_125_38" x1="1274.42" y1="975.108" x2="1121.58" y2="417.612" gradientUnits="userSpaceOnUse">
<stop stop-color="#1A6AFF" stop-opacity="0.75"/>
<stop offset="1" stop-color="#B0C8E8" stop-opacity="0.22"/>
</linearGradient>
<linearGradient id="paint17_linear_125_38" x1="1272.59" y1="970.11" x2="1117.48" y2="404.328" gradientUnits="userSpaceOnUse">
<stop stop-color="#1A6AFF" stop-opacity="0.75"/>
<stop offset="1" stop-color="#B0C8E8" stop-opacity="0.22"/>
</linearGradient>
<linearGradient id="paint18_linear_125_38" x1="1270.77" y1="965.113" x2="1113.37" y2="391.045" gradientUnits="userSpaceOnUse">
<stop stop-color="#1A6AFF" stop-opacity="0.75"/>
<stop offset="1" stop-color="#B0C8E8" stop-opacity="0.22"/>
</linearGradient>
<linearGradient id="paint19_linear_125_38" x1="1268.94" y1="960.115" x2="1109.27" y2="377.762" gradientUnits="userSpaceOnUse">
<stop stop-color="#1A6AFF" stop-opacity="0.75"/>
<stop offset="1" stop-color="#B0C8E8" stop-opacity="0.22"/>
</linearGradient>
<linearGradient id="paint20_linear_125_38" x1="1267.11" y1="955.118" x2="1105.17" y2="364.479" gradientUnits="userSpaceOnUse">
<stop stop-color="#1A6AFF" stop-opacity="0.75"/>
<stop offset="1" stop-color="#B0C8E8" stop-opacity="0.22"/>
</linearGradient>
<linearGradient id="paint21_linear_125_38" x1="1265.28" y1="950.121" x2="1101.07" y2="351.195" gradientUnits="userSpaceOnUse">
<stop stop-color="#1A6AFF" stop-opacity="0.75"/>
<stop offset="1" stop-color="#B0C8E8" stop-opacity="0.22"/>
</linearGradient>
</defs>
</svg>
