<svg width="788.000000" height="530.000000" viewBox="0 0 788 530" fill="none" xmlns="http://www.w3.org/2000/svg" xmlns:xlink="http://www.w3.org/1999/xlink">
	<desc>
			Created with Pixso.
	</desc>
	<defs/>
	<path id="Vector" d="M523.01 166.09L510.72 93.3C502.53 87.24 490.65 82.57 475.09 77.91C459.94 73.24 443.14 71.38 425.53 71.38C399.73 71.38 380.07 77.44 366.15 90.04C352.22 102.64 345.26 118.5 345.26 137.63C345.26 156.29 353.04 169.82 367.37 181.95C381.71 193.15 407.51 205.28 442.73 218.34C494.34 234.2 532.84 256.13 559.46 282.72C585.26 309.78 598.78 343.84 598.78 387.7C598.78 432.95 583.21 469.34 551.68 495C531.89 511.8 508.42 522.73 480.93 529C479.41 529.34 477.87 529.68 476.32 530L636.46 530L714.27 396.56L788 263.13L711.82 132.03L636.87 0.93L499.71 0.02L496.39 0C497.43 0.33 498.49 0.67 499.55 1.02C505.96 3.13 512.59 5.59 518.91 8.39C547.99 20.99 572.97 37.32 592.63 57.85L592.63 165.09L592.63 166.09L523.01 166.09ZM502.75 1.04Q511.73 4.12 519.31 7.48Q564.55 27.07 593.36 57.16L593.63 57.45L593.63 167.09L522.16 167.09L509.8 93.87Q499.19 86.18 474.79 78.86Q453.72 72.38 425.53 72.38Q387.16 72.38 366.82 90.78Q357.12 99.55 352 110.46Q346.26 122.7 346.26 137.63Q346.26 145.82 348.57 153.31Q353.35 168.77 368.01 181.17Q388.46 197.14 443.06 217.39Q518.78 240.67 560.17 282.02L560.17 282.02L560.18 282.03Q572.15 294.59 580.51 309.22Q599.78 342.95 599.78 387.7Q599.78 434.16 578.54 466.82Q568.03 482.98 552.32 495.77Q524.8 519.13 485.23 529L635.88 529L713.4 396.08L713.41 396.06L786.85 263.14L710.95 132.53L710.95 132.53L636.28 1.92L502.75 1.04ZM160.13 455.35L160.13 82.11L74.95 82.11L70.85 141.83L0 141.83L0 0.93L356.73 0.93C355.81 1.26 354.89 1.59 353.98 1.93C334.22 9.26 316.65 18.83 300.21 32.65C268.26 59.71 251.88 94.7 251.88 137.63C251.88 181.48 266.21 215.07 294.06 240.27C322.32 265.46 363.69 286.46 419.39 305.12C451.33 316.32 473.45 327.51 486.15 340.11C498.84 352.71 505.4 369.04 505.4 389.1C505.4 409.16 498.43 425.02 485.74 436.69C472.22 448.35 453.38 454.41 427.58 454.41C407.92 454.41 389.9 451.62 374.34 446.02C358.77 439.95 345.26 432.95 335.84 424.09L326.01 348.51L254.92 348.51L253.92 348.51L253.92 349.51L253.92 459.08C273.58 482.87 298.57 500.6 328.06 514.6C341.37 520.92 356.03 525.72 372.02 529C373.73 529.35 375.46 529.68 377.2 530L110.17 530L110.17 529L110.17 466.54L160.13 455.35ZM111.17 467.35L161.13 456.15L161.13 81.11L74.01 81.11L69.92 140.83L1 140.83L1 1.93L351.17 1.93Q321.62 13.35 299.56 31.89Q275.97 51.87 263.81 77.32Q250.88 104.38 250.88 137.63Q250.88 182.1 270.83 214.16Q280 228.9 293.39 241.01Q334.63 277.78 419.07 306.07Q467.54 323.06 485.44 340.82Q491.8 347.13 496.02 354.63Q504.4 369.51 504.4 389.1Q504.4 408.18 496.07 422.39Q491.71 429.83 485.07 435.94Q464.81 453.41 427.58 453.41Q397.86 453.41 374.69 445.08Q349.21 435.15 336.78 423.6L326.89 347.51L252.92 347.51L252.92 459.44L253.15 459.72Q280.94 493.34 327.63 515.5Q345.81 524.13 367.28 529L111.17 529L111.17 467.35Z" fill="#CDDEF5" fill-opacity="1.000000" fill-rule="evenodd"/>
</svg>
