<svg width="78" height="110" viewBox="0 0 78 110" fill="none" xmlns="http://www.w3.org/2000/svg">
<path d="M78 39C78 52 69 63 69 63H8C8 63 0 52 0 39C0 17.4609 17.4609 0 39 0C60.5391 0 78 17.4609 78 39Z" fill="#1A6AFF"/>
<path d="M69 63L38.9899 110L8 63H69Z" fill="black"/>
<path fill-rule="evenodd" clip-rule="evenodd" d="M69 17L69.5656 40.1L69 63L53.7345 63.194C56.635 62.6703 59.0923 61.7034 61.1468 60.1726C64.2487 57.957 65.7795 54.8148 65.7795 50.9073C65.7795 47.1206 64.4501 44.1798 61.9122 41.8434C59.2937 39.5472 55.507 37.6538 50.4312 36.2841C46.9668 35.1562 44.4289 34.1088 43.0189 33.142C41.609 32.0946 40.8436 30.9263 40.8436 29.315C40.8436 27.6633 41.5284 26.2937 42.8981 25.206C44.2677 24.1183 46.2014 23.5946 48.7393 23.5946C50.4715 23.5946 52.1231 23.7558 53.6137 24.1586C55.1445 24.5614 56.3127 24.9643 57.1184 25.488L58.3269 31.7723H65.1752V22.4264C63.2416 20.6539 60.7842 19.2439 57.9241 18.1563C57.199 17.8743 56.2251 17.2014 55.5 17H69ZM43.9857 63.194H17.7205V57.7153L22.6351 56.7485V24.5212H14V29.5H7V17.5117H24.4278H41.9715C39.917 18.1563 38.1043 19.0022 36.4123 20.251C33.2702 22.5875 31.6588 25.6088 31.6588 29.315C31.6588 33.1017 33.0687 36.0021 35.8081 38.1775C38.5877 40.3528 42.6564 42.1656 48.135 43.777C51.2772 44.7438 53.4525 45.7106 54.7013 46.7983C55.9501 47.886 56.5947 49.2959 56.5947 51.0281C56.5947 52.7604 55.9099 54.13 54.661 55.1371C53.3317 56.1442 51.4786 56.6679 48.9407 56.6679C47.007 56.6679 45.2346 56.4262 43.7038 55.9428C42.173 55.4191 40.8436 54.8148 39.917 54.0494L38.9502 47.5234H31.8602V57.0708C33.7938 59.1253 36.2512 60.6561 39.1516 61.8646C40.6019 62.4688 42.2132 62.912 43.9857 63.194Z" fill="black"/>
</svg>
