<svg width="100.000000" height="100.000000" viewBox="0 0 100 100" fill="none" xmlns="http://www.w3.org/2000/svg" xmlns:xlink="http://www.w3.org/1999/xlink">
	<desc>
			Created with Pixso.
	</desc>
	<defs>
		<clipPath id="clip350_428">
			<rect id="Frame" rx="0.000000" width="60.000000" height="35.000000" transform="translate(19.500000 32.500000)" fill="white" fill-opacity="0"/>
		</clipPath>
	</defs>
	<rect id="Rectangle 116" width="100.000000" height="100.000000" fill="#1A6AFF" fill-opacity="0.200000"/>
	<rect id="Rectangle 115" x="10.000000" y="10.000000" width="80.000000" height="80.000000" fill="#1A6AFF" fill-opacity="0.500000"/>
	<rect id="Rectangle 114" x="20.000000" y="20.000000" width="60.000000" height="60.000000" fill="#1A6AFF" fill-opacity="1.000000"/>
	<rect id="Frame" rx="0.000000" width="60.000000" height="35.000000" transform="translate(19.500000 32.500000)" fill="#FFFFFF" fill-opacity="0"/>
	<g clip-path="url(#clip350_428)">
		<path id="Vector" d="M38.13 38.93L32.83 38.93C31.91 38.93 31.16 38.18 31.16 37.27L31.16 33.65C31.18 32.74 31.91 32 32.83 32L38.13 32C39.05 32 39.8 32.74 39.8 33.65L39.8 37.29C39.8 38.18 39.05 38.93 38.13 38.93ZM33.43 36.69L37.55 36.69L37.55 34.23L33.43 34.23L33.43 36.69Z" fill="#FFFFFF" fill-opacity="1.000000" fill-rule="nonzero"/>
		<path id="Vector" d="M40.16 44L28.83 44C27.91 44 27.16 43.25 27.16 42.34L27.16 38.34C27.16 37.44 27.91 36.69 28.83 36.69L40.16 36.69C41.07 36.69 41.82 37.44 41.82 38.34L41.82 42.36C41.82 43.25 41.07 44 40.16 44ZM29.41 41.76L39.57 41.76L39.57 38.93L29.41 38.93L29.41 41.76Z" fill="#FFFFFF" fill-opacity="1.000000" fill-rule="nonzero"/>
		<path id="Vector" d="M73.61 40.79L45.54 40.79C44.62 40.79 43.87 41.54 43.87 42.44L43.87 55.8C43.87 56.71 44.62 57.46 45.54 57.46L60.81 57.46C61.17 56.62 61.68 55.83 62.26 55.22L46.12 55.22L46.12 43.03L73.03 43.03L73.03 51.67C73.82 51.7 74.57 51.85 75.27 52.1L75.27 42.44C75.27 41.54 74.52 40.79 73.61 40.79Z" fill="#FFFFFF" fill-opacity="1.000000" fill-rule="nonzero"/>
		<path id="Vector" d="M40.16 41.76L25.38 41.76C24.47 41.76 23.72 42.5 23.72 43.41L23.72 53.06C24.09 53 24.47 52.97 24.84 52.97C25.23 52.97 25.6 53 25.96 53.06L25.96 44L39.57 44L39.57 55.07L32.18 55.07C32.33 55.19 32.48 55.32 32.63 55.46C33.22 56 33.67 56.62 34 57.31L40.14 57.31C41.06 57.31 41.81 56.56 41.81 55.65L41.81 43.41C41.82 42.5 41.07 41.76 40.16 41.76Z" fill="#FFFFFF" fill-opacity="1.000000" fill-rule="nonzero"/>
		<path id="Vector" d="M53.99 41.76L56.24 41.76L56.24 55.89L53.99 55.89L53.99 41.76Z" fill="#FFFFFF" fill-opacity="1.000000" fill-rule="evenodd"/>
		<path id="Vector" d="M67.86 68L22.22 68C21.66 68 21.18 67.59 21.11 67.04L19.01 53.18C18.97 52.85 19.06 52.52 19.27 52.28C19.48 52.04 19.79 51.9 20.12 51.9L32.77 51.9C33.38 51.9 33.89 52.4 33.89 53.01L33.89 55.18L59.12 55.18L63.42 50.9C63.63 50.69 63.91 50.57 64.21 50.57L78.89 50.57C79.23 50.57 79.56 50.73 79.77 51C79.98 51.27 80.06 51.63 79.98 51.96L77.81 60.59C77.79 60.63 77.78 60.68 77.76 60.72C77.63 61.03 74.76 68 67.86 68ZM23.19 65.76L67.86 65.76C72.98 65.76 75.35 60.63 75.63 59.96L77.43 52.81L64.66 52.81L60.36 57.08C60.15 57.29 59.87 57.41 59.57 57.41L32.77 57.41C32.15 57.41 31.64 56.9 31.64 56.29L31.64 54.13L21.42 54.13L23.19 65.76Z" fill="#FFFFFF" fill-opacity="1.000000" fill-rule="nonzero"/>
		<path id="Vector" d="M64.93 57.41L59.57 57.41C58.95 57.41 58.44 56.9 58.44 56.29C58.44 55.68 58.95 55.17 59.57 55.17L64.93 55.17C65.55 55.17 66.06 55.68 66.06 56.29C66.06 56.9 65.55 57.41 64.93 57.41Z" fill="#FFFFFF" fill-opacity="1.000000" fill-rule="nonzero"/>
		<path id="Vector" d="M69.28 54.95C69.89 54.95 70.4 55.46 70.4 56.07C70.4 56.68 69.89 57.19 69.28 57.19C68.66 57.19 68.15 56.68 68.15 56.07C68.15 55.46 68.66 54.95 69.28 54.95Z" fill="#FFFFFF" fill-opacity="1.000000" fill-rule="nonzero"/>
		<path id="Vector" d="M45.72 45.53L74.15 45.53L74.15 47.77L45.72 47.77L45.72 45.53Z" fill="#FFFFFF" fill-opacity="1.000000" fill-rule="evenodd"/>
		<path id="Vector" d="M65.61 52.64L45 52.57L45 50.33L63.36 50.4L63.36 41.76L65.61 41.76L65.61 52.64Z" fill="#FFFFFF" fill-opacity="1.000000" fill-rule="nonzero"/>
	</g>
	<path id="Vector 14" d="M77.58 8.9L79.18 8.9C79.57 8.9 79.92 9.12 80.09 9.48L82.77 15.37C83.12 16.14 84.21 16.15 84.58 15.4L89.89 4.55C90.06 4.21 90.41 4 90.79 4L92.39 4C93.13 4 93.61 4.77 93.28 5.44L84.56 23.14C84.19 23.89 83.12 23.88 82.76 23.13L76.67 10.32C76.36 9.66 76.84 8.9 77.58 8.9Z" fill="#FFFFFF" fill-opacity="1.000000" fill-rule="evenodd"/>
</svg>
