<svg width="100.000000" height="100.000000" viewBox="0 0 100 100" fill="none" xmlns="http://www.w3.org/2000/svg" xmlns:xlink="http://www.w3.org/1999/xlink">
	<desc>
			Created with Pixso.
	</desc>
	<defs>
		<clipPath id="clip313_560">
			<rect id="Frame" rx="0.000000" width="48.000000" height="47.000000" transform="matrix(-1 0 0 1 75.5 29.5)" fill="white" fill-opacity="0"/>
		</clipPath>
	</defs>
	<rect id="Rectangle 116" width="100.000000" height="100.000000" fill="#1A6AFF" fill-opacity="0.200000"/>
	<rect id="Rectangle 115" x="10.000000" y="10.000000" width="80.000000" height="80.000000" fill="#1A6AFF" fill-opacity="0.500000"/>
	<rect id="Rectangle 114" x="20.000000" y="20.000000" width="60.000000" height="60.000000" fill="#1A6AFF" fill-opacity="1.000000"/>
	<rect id="Frame" rx="0.000000" width="48.000000" height="47.000000" transform="matrix(-1 0 0 1 75.5 29.5)" fill="#FFFFFF" fill-opacity="0"/>
	<g clip-path="url(#clip313_560)">
		<path id="Vector" d="" fill="#FFFFFF" fill-opacity="1.000000" fill-rule="nonzero"/>
		<path id="Vector" d="M27.33 37.43L74.04 37.43C74.56 37.43 75 37.01 75 36.5C75 35.98 74.56 35.56 74.04 35.56L27.33 35.56C26.81 35.56 26.38 35.98 26.38 36.5C26.38 37.01 26.81 37.43 27.33 37.43Z" fill="#FFFFFF" fill-opacity="1.000000" fill-rule="nonzero"/>
		<path id="Vector" d="M29.75 58.43L71.37 58.43C72.53 58.43 73.47 57.51 73.47 56.37L73.47 37.62C73.47 36.48 72.53 35.56 71.37 35.56L29.75 35.56C28.59 35.56 27.65 36.48 27.65 37.62L27.65 56.37C27.65 57.51 28.59 58.43 29.75 58.43ZM71.37 37.43C71.47 37.43 71.56 37.52 71.56 37.62L71.56 56.37C71.56 56.47 71.47 56.56 71.37 56.56L29.75 56.56C29.65 56.56 29.56 56.47 29.56 56.37L29.56 37.62C29.56 37.52 29.65 37.43 29.75 37.43L71.37 37.43Z" fill="#FFFFFF" fill-opacity="1.000000" fill-rule="nonzero"/>
		<path id="Vector" d="" fill="#FFFFFF" fill-opacity="1.000000" fill-rule="nonzero"/>
		<path id="Vector" d="M67.93 55.43C68.45 55.43 68.89 55.01 68.89 54.5L68.89 40.25C68.89 39.73 68.45 39.31 67.93 39.31C67.41 39.31 66.98 39.73 66.98 40.25L66.98 54.5C66.98 55.01 67.41 55.43 67.93 55.43Z" fill="#FFFFFF" fill-opacity="1.000000" fill-rule="nonzero"/>
		<path id="Vector" d="" fill="#FFFFFF" fill-opacity="1.000000" fill-rule="nonzero"/>
		<path id="Vector" d="M62.08 55.43C62.6 55.43 63.03 55.01 63.03 54.5L63.03 40.25C63.03 39.73 62.6 39.31 62.08 39.31C61.55 39.31 61.12 39.73 61.12 40.25L61.12 54.5C61.12 55.01 61.55 55.43 62.08 55.43Z" fill="#FFFFFF" fill-opacity="1.000000" fill-rule="nonzero"/>
		<path id="Vector" d="" fill="#FFFFFF" fill-opacity="1.000000" fill-rule="nonzero"/>
		<path id="Vector" d="M39.29 55.43C39.82 55.43 40.25 55.01 40.25 54.5L40.25 40.25C40.25 39.73 39.82 39.31 39.29 39.31C38.77 39.31 38.34 39.73 38.34 40.25L38.34 54.5C38.34 55.01 38.77 55.43 39.29 55.43Z" fill="#FFFFFF" fill-opacity="1.000000" fill-rule="nonzero"/>
		<path id="Vector" d="" fill="#FFFFFF" fill-opacity="1.000000" fill-rule="nonzero"/>
		<path id="Vector" d="M33.44 55.43C33.96 55.43 34.39 55.01 34.39 54.5L34.39 40.25C34.39 39.73 33.96 39.31 33.44 39.31C32.92 39.31 32.49 39.73 32.49 40.25L32.49 54.5C32.49 55.01 32.92 55.43 33.44 55.43Z" fill="#FFFFFF" fill-opacity="1.000000" fill-rule="nonzero"/>
		<path id="Vector" d="" fill="#FFFFFF" fill-opacity="1.000000" fill-rule="nonzero"/>
		<path id="Vector" d="M56.35 58.43C56.87 58.43 57.3 58.01 57.3 57.5L57.3 40.25C57.3 39.73 56.87 39.31 56.35 39.31C55.83 39.31 55.39 39.73 55.39 40.25L55.39 57.5C55.39 58.01 55.83 58.43 56.35 58.43Z" fill="#FFFFFF" fill-opacity="1.000000" fill-rule="nonzero"/>
		<path id="Vector" d="" fill="#FFFFFF" fill-opacity="1.000000" fill-rule="nonzero"/>
		<path id="Vector" d="M44.83 58.43C45.35 58.43 45.79 58.01 45.79 57.5L45.79 40.25C45.79 39.73 45.35 39.31 44.83 39.31C44.31 39.31 43.88 39.73 43.88 40.25L43.88 57.5C43.88 58.01 44.31 58.43 44.83 58.43Z" fill="#FFFFFF" fill-opacity="1.000000" fill-rule="nonzero"/>
		<path id="Vector" d="" fill="#FFFFFF" fill-opacity="1.000000" fill-rule="nonzero"/>
		<path id="Vector" d="M50.5 45.18C51.02 45.18 51.45 44.76 51.45 44.25L51.45 40.25C51.45 39.73 51.02 39.31 50.5 39.31C49.97 39.31 49.54 39.73 49.54 40.25L49.54 44.25C49.54 44.76 49.97 45.18 50.5 45.18Z" fill="#FFFFFF" fill-opacity="1.000000" fill-rule="nonzero"/>
		<path id="Vector" d="" fill="#FFFFFF" fill-opacity="1.000000" fill-rule="nonzero"/>
		<path id="Vector" d="M45.15 45.18L55.84 45.18C56.36 45.18 56.79 44.76 56.79 44.25C56.79 43.73 56.36 43.31 55.84 43.31L45.15 43.31C44.63 43.31 44.19 43.73 44.19 44.25C44.19 44.76 44.63 45.18 45.15 45.18Z" fill="#FFFFFF" fill-opacity="1.000000" fill-rule="nonzero"/>
		<path id="Vector" d="M28.1 63.12L72.89 63.12C74.05 63.12 75 62.2 75 61.06L75 58.31C75 57.17 74.05 56.25 72.89 56.25L28.1 56.25C26.94 56.25 26 57.17 26 58.31L26 61.06C26 62.2 26.94 63.12 28.1 63.12ZM72.89 58.12C73 58.12 73.09 58.21 73.09 58.31L73.09 61.06C73.09 61.16 73 61.25 72.89 61.25L28.1 61.25C27.99 61.25 27.9 61.16 27.9 61.06L27.9 58.31C27.9 58.21 27.99 58.12 28.1 58.12L72.89 58.12Z" fill="#FFFFFF" fill-opacity="1.000000" fill-rule="nonzero"/>
		<path id="Vector" d="M64.32 62.54C63.76 63.21 63.41 64.06 63.41 65C63.41 67.09 65.16 68.81 67.29 68.81C69.43 68.81 71.18 67.09 71.18 65C71.18 64.03 70.82 63.16 70.22 62.5C70.95 62.48 71.64 62.36 72.28 62.12C72.79 62.97 73.09 63.95 73.09 65C73.09 68.13 70.49 70.68 67.29 70.68C64.1 70.68 61.5 68.13 61.5 65C61.5 63.95 61.8 62.96 62.31 62.11C62.96 62.36 63.64 62.52 64.32 62.54Z" fill="#FFFFFF" fill-opacity="1.000000" fill-rule="nonzero"/>
		<path id="Vector" d="M66.28 65C66.28 65.55 66.73 66 67.3 66C67.86 66 68.31 65.55 68.31 65C68.31 64.44 67.86 64 67.3 64C66.73 64 66.28 64.44 66.28 65Z" fill="#FFFFFF" fill-opacity="1.000000" fill-rule="evenodd"/>
		<path id="Vector" d="M54 62.87C54.27 62.87 54.54 62.85 54.81 62.82C54.36 63.43 54.11 64.2 54.11 65C54.11 67.1 55.85 68.81 57.99 68.81C60.13 68.81 61.87 67.1 61.87 65C61.87 64.03 61.5 63.15 60.89 62.47C61.06 62.48 61.21 62.5 61.38 62.5C61.96 62.5 62.52 62.41 63.07 62.26C63.53 63.07 63.78 64.01 63.78 65C63.78 68.13 61.19 70.68 57.99 70.68C54.8 70.68 52.2 68.13 52.2 65C52.2 64.18 52.38 63.42 52.68 62.72C53.12 62.82 53.56 62.87 54 62.87Z" fill="#FFFFFF" fill-opacity="1.000000" fill-rule="nonzero"/>
		<path id="Vector" d="M56.97 65C56.97 65.55 57.43 66 57.99 66C58.55 66 59.01 65.55 59.01 65C59.01 64.44 58.55 64 57.99 64C57.43 64 56.97 64.44 56.97 65Z" fill="#FFFFFF" fill-opacity="1.000000" fill-rule="evenodd"/>
		<path id="Vector" d="M39.02 62.35C39.66 62.58 40.34 62.72 41.01 62.75C40.54 63.38 40.26 64.16 40.26 65C40.26 67.1 42.01 68.81 44.14 68.81C46.28 68.81 48.01 67.1 48.01 65C48.01 64.01 47.63 63.11 47.01 62.43C47.08 62.42 47.16 62.41 47.24 62.4C47.77 62.53 48.31 62.61 48.84 62.61C49.02 62.61 49.2 62.6 49.37 62.58C49.72 63.31 49.92 64.12 49.92 64.98C49.92 68.12 47.33 70.67 44.13 70.67C40.94 70.67 38.34 68.13 38.34 65C38.34 64.03 38.58 63.13 39.02 62.35Z" fill="#FFFFFF" fill-opacity="1.000000" fill-rule="nonzero"/>
		<path id="Vector" d="M43.11 65C43.11 65.55 43.57 66 44.13 66C44.69 66 45.15 65.55 45.15 65C45.15 64.44 44.69 64 44.13 64C43.57 64 43.11 64.44 43.11 65Z" fill="#FFFFFF" fill-opacity="1.000000" fill-rule="evenodd"/>
		<path id="Vector" d="M30.77 62.68C31.1 62.68 31.42 62.66 31.72 62.61C31.19 63.26 30.87 64.1 30.87 65C30.87 67.1 32.61 68.81 34.75 68.81C36.89 68.81 38.63 67.1 38.63 65C38.63 64.05 38.28 63.18 37.69 62.52C38.16 62.63 38.63 62.68 39.1 62.68C39.41 62.68 39.72 62.66 40.01 62.62C40.35 63.35 40.54 64.15 40.54 65C40.54 68.13 37.95 70.68 34.75 70.68C31.56 70.68 28.96 68.13 28.96 65C28.96 64.12 29.16 63.3 29.52 62.56C29.94 62.63 30.36 62.68 30.77 62.68Z" fill="#FFFFFF" fill-opacity="1.000000" fill-rule="nonzero"/>
		<path id="Vector" d="M33.73 65C33.73 65.55 34.19 66 34.75 66C35.31 66 35.77 65.55 35.77 65C35.77 64.44 35.31 64 34.75 64C34.19 64 33.73 64.44 33.73 65Z" fill="#FFFFFF" fill-opacity="1.000000" fill-rule="evenodd"/>
	</g>
	<path id="Vector 14" d="M77.58 8.9L79.18 8.9C79.57 8.9 79.92 9.12 80.09 9.48L82.77 15.37C83.12 16.14 84.21 16.15 84.58 15.4L89.89 4.55C90.06 4.21 90.41 4 90.79 4L92.39 4C93.13 4 93.61 4.77 93.28 5.44L84.56 23.14C84.19 23.89 83.12 23.88 82.76 23.13L76.67 10.32C76.36 9.66 76.84 8.9 77.58 8.9Z" fill="#FFFFFF" fill-opacity="1.000000" fill-rule="evenodd"/>
</svg>
