<svg width="100.000000" height="100.000000" viewBox="0 0 100 100" fill="none" xmlns="http://www.w3.org/2000/svg" xmlns:xlink="http://www.w3.org/1999/xlink">
	<desc>
			Created with Pixso.
	</desc>
	<defs>
		<clipPath id="clip312_483">
			<rect id="Frame" rx="0.000000" width="60.000000" height="35.000000" transform="translate(18.500000 34.500000)" fill="white" fill-opacity="0"/>
		</clipPath>
		<clipPath id="clip314_645">
			<rect id="Frame" rx="0.000000" width="54.000000" height="54.000000" transform="translate(23.500000 21.500000)" fill="white" fill-opacity="0"/>
		</clipPath>
	</defs>
	<rect id="Rectangle 116" width="100.000000" height="100.000000" fill="#1A6AFF" fill-opacity="0.200000"/>
	<rect id="Rectangle 115" x="10.000000" y="10.000000" width="80.000000" height="80.000000" fill="#1A6AFF" fill-opacity="0.500000"/>
	<rect id="Rectangle 114" x="20.000000" y="20.000000" width="60.000000" height="60.000000" fill="#1A6AFF" fill-opacity="1.000000"/>
	<rect id="Frame" rx="0.000000" width="54.000000" height="54.000000" transform="translate(23.500000 21.500000)" fill="#FFFFFF" fill-opacity="0"/>
	<g clip-path="url(#clip314_645)">
		<path id="Vector" d="M75.64 76L25.57 76C24.27 76 23.21 74.94 23.21 73.65L23.21 47.43C23.21 46.14 24.27 45.08 25.57 45.08L75.64 45.08C76.94 45.08 78 46.14 78 47.43L78 73.65C78 74.94 76.94 76 75.64 76ZM25.57 47.22C25.45 47.22 25.35 47.32 25.35 47.43L25.35 73.65C25.35 73.76 25.45 73.86 25.57 73.86L75.64 73.86C75.75 73.86 75.85 73.76 75.85 73.65L75.85 47.43C75.85 47.32 75.75 47.22 75.64 47.22L25.57 47.22Z" fill="#FFFFFF" fill-opacity="1.000000" fill-rule="nonzero"/>
		<path id="Vector" d="M28.92 71.09C28.34 71.09 27.85 70.61 27.85 70.03L27.85 51.34C27.85 50.75 28.34 50.27 28.92 50.27C29.51 50.27 30 50.75 30 51.34L30 70.03C30 70.61 29.51 71.09 28.92 71.09Z" fill="#FFFFFF" fill-opacity="1.000000" fill-rule="nonzero"/>
		<path id="Vector" d="M33.28 71.09C32.7 71.09 32.21 70.61 32.21 70.03L32.21 51.34C32.21 50.75 32.7 50.27 33.28 50.27C33.87 50.27 34.35 50.75 34.35 51.34L34.35 70.03C34.35 70.61 33.87 71.09 33.28 71.09Z" fill="#FFFFFF" fill-opacity="1.000000" fill-rule="nonzero"/>
		<path id="Vector" d="M37.5 71.09C36.91 71.09 36.42 70.61 36.42 70.03L36.42 51.34C36.42 50.75 36.91 50.27 37.5 50.27C38.08 50.27 38.57 50.75 38.57 51.34L38.57 70.03C38.57 70.61 38.08 71.09 37.5 71.09Z" fill="#FFFFFF" fill-opacity="1.000000" fill-rule="nonzero"/>
		<path id="Vector" d="M41.78 71.09C41.2 71.09 40.71 70.61 40.71 70.03L40.71 51.34C40.71 50.75 41.2 50.27 41.78 50.27C42.37 50.27 42.85 50.75 42.85 51.34L42.85 70.03C42.85 70.61 42.37 71.09 41.78 71.09Z" fill="#FFFFFF" fill-opacity="1.000000" fill-rule="nonzero"/>
		<path id="Vector" d="M46.07 71.09C45.48 71.09 45 70.61 45 70.03L45 51.34C45 50.75 45.48 50.27 46.07 50.27C46.65 50.27 47.14 50.75 47.14 51.34L47.14 70.03C47.14 70.61 46.65 71.09 46.07 71.09Z" fill="#FFFFFF" fill-opacity="1.000000" fill-rule="nonzero"/>
		<path id="Vector" d="M50.42 71.09C49.84 71.09 49.35 70.61 49.35 70.03L49.35 51.34C49.35 50.75 49.84 50.27 50.42 50.27C51.01 50.27 51.5 50.75 51.5 51.34L51.5 70.03C51.5 70.61 51.01 71.09 50.42 71.09Z" fill="#FFFFFF" fill-opacity="1.000000" fill-rule="nonzero"/>
		<path id="Vector" d="M54.78 71.09C54.2 71.09 53.71 70.61 53.71 70.03L53.71 51.34C53.71 50.75 54.2 50.27 54.78 50.27C55.37 50.27 55.85 50.75 55.85 51.34L55.85 70.03C55.85 70.61 55.37 71.09 54.78 71.09Z" fill="#FFFFFF" fill-opacity="1.000000" fill-rule="nonzero"/>
		<path id="Vector" d="M58.92 71.09C58.34 71.09 57.85 70.61 57.85 70.03L57.85 51.34C57.85 50.75 58.34 50.27 58.92 50.27C59.51 50.27 60 50.75 60 51.34L60 70.03C60 70.61 59.51 71.09 58.92 71.09Z" fill="#FFFFFF" fill-opacity="1.000000" fill-rule="nonzero"/>
		<path id="Vector" d="M63.28 71.09C62.7 71.09 62.21 70.61 62.21 70.03L62.21 51.34C62.21 50.75 62.7 50.27 63.28 50.27C63.87 50.27 64.35 50.75 64.35 51.34L64.35 70.03C64.35 70.61 63.87 71.09 63.28 71.09Z" fill="#FFFFFF" fill-opacity="1.000000" fill-rule="nonzero"/>
		<path id="Vector" d="M67.42 71.09C66.84 71.09 66.35 70.61 66.35 70.03L66.35 51.34C66.35 50.75 66.84 50.27 67.42 50.27C68.01 50.27 68.5 50.75 68.5 51.34L68.5 70.03C68.5 70.61 68.01 71.09 67.42 71.09Z" fill="#FFFFFF" fill-opacity="1.000000" fill-rule="nonzero"/>
		<path id="Vector" d="M71.92 71.09C71.34 71.09 70.85 70.61 70.85 70.03L70.85 51.34C70.85 50.75 71.34 50.27 71.92 50.27C72.51 50.27 73 50.75 73 51.34L73 70.03C73 70.61 72.51 71.09 71.92 71.09Z" fill="#FFFFFF" fill-opacity="1.000000" fill-rule="nonzero"/>
		<path id="Vector" d="M28.21 47.86C26.64 47.86 25.35 46.58 25.35 45.01C25.35 43.45 26.64 42.17 28.21 42.17C29.78 42.17 31.07 43.45 31.07 45.01C31.07 46.58 29.78 47.86 28.21 47.86ZM28.21 44.3C27.81 44.3 27.5 44.62 27.5 45.01C27.5 45.41 27.81 45.72 28.21 45.72C28.61 45.72 28.92 45.41 28.92 45.01C28.92 44.62 28.61 44.3 28.21 44.3Z" fill="#FFFFFF" fill-opacity="1.000000" fill-rule="nonzero"/>
		<path id="Vector" d="M72.91 47.86C71.34 47.86 70.05 46.58 70.05 45.01C70.05 43.45 71.34 42.17 72.91 42.17C74.48 42.17 75.77 43.45 75.77 45.01C75.77 46.58 74.49 47.86 72.91 47.86ZM72.91 44.3C72.51 44.3 72.19 44.62 72.19 45.01C72.19 45.41 72.51 45.72 72.91 45.72C73.31 45.72 73.62 45.41 73.62 45.01C73.62 44.62 73.31 44.3 72.91 44.3Z" fill="#FFFFFF" fill-opacity="1.000000" fill-rule="nonzero"/>
		<path id="Vector" d="M30.78 44.94C30.2 44.94 29.71 44.46 29.71 43.88C29.71 43.36 30.07 42.94 30.55 42.84C31.54 42.5 41.35 38.21 47.78 35.38C48.32 35.14 48.95 35.38 49.2 35.92C49.44 36.46 49.2 37.08 48.65 37.32C48.61 37.34 44.34 39.23 40.07 41.09C31.22 44.94 31.1 44.94 30.78 44.94Z" fill="#FFFFFF" fill-opacity="1.000000" fill-rule="nonzero"/>
		<path id="Vector" d="M70.64 44.94C70.51 44.94 70.38 44.91 70.25 44.87L51.04 37.34C50.48 37.13 50.22 36.5 50.44 35.96C50.65 35.41 51.28 35.15 51.82 35.36L71.04 42.9C71.6 43.11 71.85 43.73 71.64 44.27C71.47 44.69 71.07 44.94 70.64 44.94Z" fill="#FFFFFF" fill-opacity="1.000000" fill-rule="nonzero"/>
		<path id="Vector" d="M50.59 31.84C50.29 31.84 49.99 31.75 49.74 31.6L49.09 31.2C47.87 30.42 47.14 29.11 47.14 27.67L47.14 22.79C47.14 21.79 47.94 21 48.94 21L52.37 21C53.31 21 54.07 21.75 54.07 22.69L54.07 27.7C54.07 29.02 53.41 30.28 52.29 31.01L51.49 31.55C51.22 31.74 50.91 31.84 50.59 31.84ZM49.28 23.13L49.28 27.67C49.28 28.37 49.64 29.01 50.22 29.38L50.58 29.61L51.09 29.25C51.61 28.91 51.92 28.33 51.92 27.7L51.92 23.13L49.28 23.13Z" fill="#FFFFFF" fill-opacity="1.000000" fill-rule="nonzero"/>
		<path id="Vector" d="M50.61 39.33C48.98 39.33 46.57 38.23 46.57 35.19C46.57 34.61 47.05 34.13 47.64 34.13C48.22 34.13 48.71 34.61 48.71 35.19C48.71 37.14 50.42 37.2 50.61 37.2C50.75 37.2 51.17 37.07 51.47 36.74C51.74 36.46 51.85 36.12 51.84 35.7C51.81 35.18 51.62 34.84 51.21 34.62C50.88 34.45 50.55 34.42 50.55 34.42L49.54 34.37L49.54 31.37C49.54 30.79 50.02 30.3 50.61 30.3C51.19 30.3 51.68 30.79 51.68 31.37L51.68 32.51C52.72 32.88 53.89 33.77 53.98 35.6C54.04 36.6 53.69 37.51 53.02 38.22C52.37 38.89 51.42 39.33 50.61 39.33Z" fill="#FFFFFF" fill-opacity="1.000000" fill-rule="nonzero"/>
	</g>
	<path id="Vector 14" d="M77.58 8.9L79.18 8.9C79.57 8.9 79.92 9.12 80.09 9.48L82.77 15.37C83.12 16.14 84.21 16.15 84.58 15.4L89.89 4.55C90.06 4.21 90.41 4 90.79 4L92.39 4C93.13 4 93.61 4.77 93.28 5.44L84.56 23.14C84.19 23.89 83.12 23.88 82.76 23.13L76.67 10.32C76.36 9.66 76.84 8.9 77.58 8.9Z" fill="#FFFFFF" fill-opacity="1.000000" fill-rule="evenodd"/>
</svg>
