<svg width="100.000000" height="100.000000" viewBox="0 0 100 100" fill="none" xmlns="http://www.w3.org/2000/svg" xmlns:xlink="http://www.w3.org/1999/xlink">
	<desc>
			Created with Pixso.
	</desc>
	<defs>
		<clipPath id="clip315_700">
			<rect id="Frame" rx="0.000000" width="49.000000" height="48.000000" transform="translate(25.500000 28.500000)" fill="white" fill-opacity="0"/>
		</clipPath>
	</defs>
	<rect id="Rectangle 116" width="100.000000" height="100.000000" fill="#1A6AFF" fill-opacity="0.200000"/>
	<rect id="Rectangle 115" x="10.000000" y="10.000000" width="80.000000" height="80.000000" fill="#1A6AFF" fill-opacity="0.500000"/>
	<rect id="Rectangle 114" x="20.000000" y="20.000000" width="60.000000" height="60.000000" fill="#1A6AFF" fill-opacity="1.000000"/>
	<path id="Vector 14" d="M77.58 8.9L79.18 8.9C79.57 8.9 79.92 9.12 80.09 9.48L82.77 15.37C83.12 16.14 84.21 16.15 84.58 15.4L89.89 4.55C90.06 4.21 90.41 4 90.79 4L92.39 4C93.13 4 93.61 4.77 93.28 5.44L84.56 23.14C84.19 23.89 83.12 23.88 82.76 23.13L76.67 10.32C76.36 9.66 76.84 8.9 77.58 8.9Z" fill="#FFFFFF" fill-opacity="1.000000" fill-rule="evenodd"/>
	<rect id="Frame" rx="0.000000" width="49.000000" height="48.000000" transform="translate(25.500000 28.500000)" fill="#FFFFFF" fill-opacity="0"/>
	<g clip-path="url(#clip315_700)">
		<path id="Vector" d="M43.04 48.35L34.4 48.35C32.99 48.35 31.84 47.19 31.84 45.76L31.84 30.58C31.84 29.15 32.99 28 34.4 28L43.04 28C44.45 28 45.6 29.15 45.6 30.58L45.6 45.76C45.6 47.19 44.45 48.35 43.04 48.35ZM34.4 30.34C34.28 30.34 34.17 30.45 34.17 30.58L34.17 45.76C34.17 45.89 34.28 46 34.4 46L43.04 46C43.16 46 43.27 45.89 43.27 45.76L43.27 30.58C43.27 30.45 43.16 30.34 43.04 30.34L34.4 30.34Z" fill="#FFFFFF" fill-opacity="1.000000" fill-rule="nonzero"/>
		<path id="Vector" d="M32.68 39.27C32.65 38.7 32.8 38.17 33.08 37.7L27.56 37.7C27.44 37.7 27.33 37.59 27.33 37.47L27.33 33.99C27.33 33.87 27.44 33.76 27.56 33.76L32.41 33.76C32.35 33.52 32.3 33.27 32.3 33C32.27 32.43 32.44 31.88 32.72 31.41L27.56 31.41C26.15 31.41 25 32.57 25 33.99L25 37.47C25 38.89 26.15 40.05 27.56 40.05L32.8 40.05C32.74 39.8 32.69 39.53 32.68 39.27Z" fill="#FFFFFF" fill-opacity="1.000000" fill-rule="nonzero"/>
		<path id="Vector" d="M72.43 31.41L43.91 31.41C44.3 31.94 44.54 32.61 44.58 33.32C44.58 33.46 44.58 33.62 44.56 33.76L72.43 33.76C72.55 33.76 72.66 33.87 72.66 33.99L72.66 37.47C72.66 37.59 72.55 37.7 72.43 37.7L44.5 37.7C44.47 38.33 44.44 38.97 44.36 39.6C44.34 39.75 44.31 39.91 44.28 40.05L72.43 40.05C73.85 40.05 75 38.89 75 37.47L75 33.99C75 32.57 73.85 31.41 72.43 31.41Z" fill="#FFFFFF" fill-opacity="1.000000" fill-rule="nonzero"/>
		<path id="Vector" d="M72.43 68.46L52.13 68.46C50.72 68.46 49.57 67.3 49.57 65.88L49.57 57.66C49.57 56.24 50.72 55.08 52.13 55.08L72.43 55.08C73.84 55.08 75 56.24 75 57.66L75 65.88C75 67.3 73.84 68.46 72.43 68.46ZM52.13 57.43C52.01 57.43 51.9 57.54 51.9 57.66L51.9 65.88C51.9 66 52.01 66.12 52.13 66.12L72.43 66.12C72.55 66.12 72.66 66 72.66 65.88L72.66 57.66C72.66 57.54 72.55 57.43 72.43 57.43L52.13 57.43Z" fill="#FFFFFF" fill-opacity="1.000000" fill-rule="nonzero"/>
		<path id="Vector" d="M40.94 77L37.9 77C36.49 77 35.34 75.84 35.34 74.41L35.34 48.42C35.34 47.05 36.44 46 37.9 46L40.94 46C42.4 46 43.5 47.05 43.5 48.42L43.5 74.41C43.5 75.84 42.35 77 40.94 77ZM37.67 48.41L37.67 48.42L37.67 74.41C37.67 74.54 37.78 74.65 37.9 74.65L40.94 74.65C41.06 74.65 41.17 74.54 41.17 74.41L41.17 48.42C41.17 48.41 41.17 48.39 41.17 48.39C41.17 48.39 41.09 48.35 40.94 48.35L37.9 48.35C37.78 48.35 37.7 48.39 37.67 48.41Z" fill="#FFFFFF" fill-opacity="1.000000" fill-rule="nonzero"/>
		<path id="Vector" d="M35.1 77L28.81 77C27.39 77 26.24 75.84 26.24 74.41L26.24 60.79C26.24 59.37 27.39 58.21 28.81 58.21L35.1 58.21C36.52 58.21 37.67 59.37 37.67 60.79L37.67 74.41C37.67 75.84 36.52 77 35.1 77ZM28.81 60.56C28.68 60.56 28.57 60.67 28.57 60.79L28.57 74.41C28.57 74.54 28.68 74.65 28.81 74.65L35.1 74.65C35.23 74.65 35.34 74.54 35.34 74.41L35.34 60.79C35.34 60.67 35.23 60.56 35.1 60.56L28.81 60.56Z" fill="#FFFFFF" fill-opacity="1.000000" fill-rule="nonzero"/>
		<path id="Vector" d="M72.66 77L36.27 77C35.63 77 35.1 76.46 35.1 75.82C35.1 75.18 35.63 74.65 36.27 74.65L72.66 74.65C73.3 74.65 73.83 75.18 73.83 75.82C73.83 76.46 73.32 77 72.66 77Z" fill="#FFFFFF" fill-opacity="1.000000" fill-rule="nonzero"/>
		<path id="Vector" d="M55.38 32.74L57.72 32.74L57.72 37.7L55.38 37.7L55.38 32.74Z" fill="#FFFFFF" fill-opacity="1.000000" fill-rule="evenodd"/>
		<path id="Vector" d="M66.89 32.74L69.23 32.74L69.23 37.7L66.89 37.7L66.89 32.74Z" fill="#FFFFFF" fill-opacity="1.000000" fill-rule="evenodd"/>
		<path id="Vector" d="M28.11 63.61L36.04 63.61L36.04 65.96L28.11 65.96L28.11 63.61Z" fill="#FFFFFF" fill-opacity="1.000000" fill-rule="evenodd"/>
		<path id="Vector" d="M28.11 69.17L36.04 69.17L36.04 71.52L28.11 71.52L28.11 69.17Z" fill="#FFFFFF" fill-opacity="1.000000" fill-rule="evenodd"/>
		<path id="Vector" d="M55.23 60.17L57.95 60.17L57.95 62.94L55.23 62.94L55.23 60.17Z" fill="#FFFFFF" fill-opacity="1.000000" fill-rule="evenodd"/>
		<path id="Vector" d="M60.92 60.17L63.64 60.17L63.64 62.94L60.92 62.94L60.92 60.17Z" fill="#FFFFFF" fill-opacity="1.000000" fill-rule="evenodd"/>
		<path id="Vector" d="M66.71 60.17L69.43 60.17L69.43 62.94L66.71 62.94L66.71 60.17Z" fill="#FFFFFF" fill-opacity="1.000000" fill-rule="evenodd"/>
		<path id="Vector" d="M62.85 51.56C61.01 51.56 58.45 50.18 58.45 47.59C58.45 46.95 58.98 46.42 59.61 46.42C60.25 46.42 60.78 46.95 60.78 47.59C60.78 48.64 62.12 49.21 62.85 49.21C62.99 49.21 63.53 49.05 63.97 48.57C64.31 48.17 64.47 47.69 64.4 47.14C64.23 45.47 62.54 45.51 62.34 45.53C62.03 45.54 61.7 45.43 61.47 45.22C61.23 45 61.09 44.68 61.09 44.35L61.09 38.87C61.09 38.23 61.62 37.7 62.26 37.7C62.9 37.7 63.42 38.23 63.42 38.87L63.42 43.27C65.04 43.62 66.49 44.82 66.71 46.89C66.83 48.13 66.47 49.24 65.68 50.13C64.95 50.99 63.8 51.56 62.85 51.56Z" fill="#FFFFFF" fill-opacity="1.000000" fill-rule="nonzero"/>
		<path id="Vector" d="M73.35 57.82C73.14 57.82 72.93 57.75 72.74 57.65L62.29 51.13L52.43 57.25C51.88 57.6 51.17 57.43 50.83 56.86C50.48 56.32 50.66 55.59 51.22 55.25L62.3 48.38L73.98 55.64C74.53 55.99 74.7 56.71 74.36 57.25C74.12 57.61 73.73 57.82 73.35 57.82Z" fill="#FFFFFF" fill-opacity="1.000000" fill-rule="nonzero"/>
	</g>
</svg>
