<svg width="100.000000" height="100.000000" viewBox="0 0 100 100" fill="none" xmlns="http://www.w3.org/2000/svg" xmlns:xlink="http://www.w3.org/1999/xlink">
	<desc>
			Created with Pixso.
	</desc>
	<defs>
		<clipPath id="clip316_822">
			<rect id="Frame" rx="0.000000" width="52.000000" height="33.000000" transform="translate(24.500000 39.500000)" fill="white" fill-opacity="0"/>
		</clipPath>
	</defs>
	<rect id="Rectangle 116" width="100.000000" height="100.000000" fill="#1A6AFF" fill-opacity="0.200000"/>
	<rect id="Rectangle 115" x="10.000000" y="10.000000" width="80.000000" height="80.000000" fill="#1A6AFF" fill-opacity="0.500000"/>
	<rect id="Rectangle 114" x="20.000000" y="20.000000" width="60.000000" height="60.000000" fill="#1A6AFF" fill-opacity="1.000000"/>
	<path id="Vector 14" d="M77.58 8.9L79.18 8.9C79.57 8.9 79.92 9.12 80.09 9.48L82.77 15.37C83.12 16.14 84.21 16.15 84.58 15.4L89.89 4.55C90.06 4.21 90.41 4 90.79 4L92.39 4C93.13 4 93.61 4.77 93.28 5.44L84.56 23.14C84.19 23.89 83.12 23.88 82.76 23.13L76.67 10.32C76.36 9.66 76.84 8.9 77.58 8.9Z" fill="#FFFFFF" fill-opacity="1.000000" fill-rule="evenodd"/>
	<rect id="Frame" rx="0.000000" width="52.000000" height="33.000000" transform="translate(24.500000 39.500000)" fill="#FFFFFF" fill-opacity="0"/>
	<g clip-path="url(#clip316_822)">
		<path id="Vector" d="M41.28 57.08C41.84 57.08 42.29 56.62 42.29 56.07L42.29 43.72C42.29 43.16 41.84 42.7 41.28 42.7C40.72 42.7 40.27 43.16 40.27 43.72L40.27 56.07C40.27 56.62 40.72 57.08 41.28 57.08Z" fill="#FFFFFF" fill-opacity="1.000000" fill-rule="nonzero"/>
		<path id="Vector" d="M47.37 57.08C47.92 57.08 48.38 56.62 48.38 56.07L48.38 43.72C48.38 43.16 47.92 42.7 47.37 42.7C46.81 42.7 46.35 43.16 46.35 43.72L46.35 56.07C46.35 56.62 46.81 57.08 47.37 57.08Z" fill="#FFFFFF" fill-opacity="1.000000" fill-rule="nonzero"/>
		<path id="Vector" d="M53.45 57.08C54.01 57.08 54.47 56.62 54.47 56.07L54.47 43.72C54.47 43.16 54.01 42.7 53.45 42.7C52.89 42.7 52.44 43.16 52.44 43.72L52.44 56.07C52.44 56.62 52.89 57.08 53.45 57.08Z" fill="#FFFFFF" fill-opacity="1.000000" fill-rule="nonzero"/>
		<path id="Vector" d="M59.64 57.08C60.2 57.08 60.65 56.62 60.65 56.07L60.65 43.72C60.65 43.16 60.2 42.7 59.64 42.7C59.08 42.7 58.62 43.16 58.62 43.72L58.62 56.07C58.62 56.62 59.08 57.08 59.64 57.08Z" fill="#FFFFFF" fill-opacity="1.000000" fill-rule="nonzero"/>
		<path id="Vector" d="M65.67 57.08C66.23 57.08 66.69 56.62 66.69 56.07L66.69 43.72C66.69 43.16 66.23 42.7 65.67 42.7C65.12 42.7 64.66 43.16 64.66 43.72L64.66 56.07C64.66 56.62 65.12 57.08 65.67 57.08Z" fill="#FFFFFF" fill-opacity="1.000000" fill-rule="nonzero"/>
		<path id="Vector" d="M71.81 57.08C72.37 57.08 72.83 56.62 72.83 56.07L72.83 43.72C72.83 43.16 72.37 42.7 71.81 42.7C71.25 42.7 70.8 43.16 70.8 43.72L70.8 56.07C70.8 56.62 71.25 57.08 71.81 57.08Z" fill="#FFFFFF" fill-opacity="1.000000" fill-rule="nonzero"/>
		<path id="Vector" d="M75.98 70.96L72.45 70.96C73.03 70.61 73.52 70.14 73.89 69.58L73.92 69.59L74.03 69.41C74.42 68.75 74.64 68 74.67 67.23C74.67 67.17 74.68 67.11 74.68 67.05C74.68 67.04 74.68 67.03 74.68 67.02C74.68 67.01 74.68 67 74.68 66.99C74.68 66.93 74.68 66.87 74.67 66.81C74.66 66.6 74.64 66.4 74.61 66.21C75.12 65.56 75.72 64.51 75.72 63.16C75.72 62.05 75.37 61.15 75 60.51C75.8 60.27 76.38 59.53 76.38 58.66L76.38 40.93C76.38 39.86 75.51 39 74.45 39L38.9 39C37.83 39 36.97 39.86 36.97 40.93L36.97 49.16L29.88 49.16C29.42 49.16 29.02 49.46 28.89 49.91L27.05 56.73L24.64 57.61C24.25 57.75 23.98 58.14 23.98 58.57L23.98 66.19C23.98 66.75 24.44 67.2 25 67.2L33.54 67.2C33.54 67.21 33.54 67.22 33.54 67.23C33.57 68 33.78 68.75 34.17 69.41L34.28 69.59L34.31 69.58C34.69 70.14 35.18 70.62 35.76 70.97L25.01 70.97C24.45 70.97 24 71.43 24 71.99C24 72.55 24.45 73 25.01 73L75.98 73C76.54 73 77 72.55 77 71.99C77 71.43 76.54 70.96 75.98 70.96ZM59.55 67.13L59.55 67.12C59.55 67.09 59.55 67.05 59.55 67.02C59.55 66.99 59.55 66.95 59.55 66.92L59.55 66.91C59.62 65.49 60.8 64.36 62.24 64.36C63.67 64.36 64.84 65.49 64.92 66.91C64.92 66.91 64.92 66.91 64.92 66.92C64.92 66.95 64.92 66.99 64.92 67.02C64.92 67.05 64.92 67.09 64.92 67.12C64.92 67.12 64.92 67.12 64.92 67.13C64.85 68.55 63.68 69.68 62.24 69.68C60.8 69.68 59.62 68.55 59.55 67.13ZM67.36 67.2L67.38 67.2L67.35 67.07C67.35 67.05 67.35 67.03 67.35 67.02C67.35 66.99 67.35 66.95 67.35 66.92L67.35 66.91C67.42 65.49 68.6 64.36 70.04 64.36C71.47 64.36 72.64 65.49 72.72 66.91C72.72 66.91 72.72 66.91 72.72 66.92C72.72 66.95 72.72 66.99 72.72 67.02C72.72 67.05 72.72 67.09 72.72 67.12C72.72 67.12 72.72 67.12 72.72 67.13C72.65 68.55 71.48 69.68 70.04 69.68C68.63 69.68 67.47 68.58 67.36 67.2ZM73.55 64C72.69 63.02 71.44 62.4 70.05 62.4C68.44 62.4 67.02 63.22 66.19 64.47L66.16 64.46L66.15 64.48L66.13 64.45L66.1 64.46C65.27 63.22 63.85 62.4 62.25 62.4C60.64 62.4 59.22 63.22 58.39 64.47L58.36 64.46L58.25 64.64C58.15 64.82 58.06 64.99 57.99 65.17L42.46 65.17C42.37 64.99 42.28 64.8 42.18 64.63L42.07 64.45L42.04 64.46C41.35 63.43 40.27 62.7 39 62.47L39 61.11L72.96 61.11C73.26 61.48 73.69 62.19 73.69 63.16C73.69 63.47 73.63 63.75 73.55 64ZM74.35 58.56L39 58.56L39 53.47L39 41.03L74.35 41.03L74.35 58.56ZM36.97 62.56C35.87 62.85 34.94 63.54 34.32 64.47L34.29 64.46L34.18 64.64C34.08 64.82 33.99 64.99 33.92 65.17L26.02 65.17L26.02 62.92L28.35 62.92C28.9 62.92 29.36 62.47 29.36 61.91C29.36 61.35 28.9 60.89 28.35 60.89L26.02 60.89L26.02 59.43L34 59.34C34.55 59.33 35 58.88 35 58.32L35 53.73C35 53.17 34.54 52.71 33.99 52.71L30.24 52.71L30.66 51.19L36.9 51.19L36.94 60.09C36.94 60.19 36.96 60.29 36.98 60.38L36.98 62.56L36.97 62.56ZM29.7 54.75L32.97 54.75L32.97 57.33L28.99 57.37L29.7 54.75ZM35.5 67.13L35.5 67.12C35.5 67.09 35.5 67.05 35.5 67.02C35.5 66.99 35.5 66.95 35.5 66.92L35.5 66.91C35.57 65.49 36.75 64.36 38.19 64.36C39.62 64.36 40.79 65.49 40.87 66.91C40.87 66.91 40.87 66.91 40.87 66.92C40.87 66.95 40.87 66.99 40.87 67.02C40.87 67.05 40.87 67.09 40.87 67.12C40.87 67.12 40.87 67.12 40.87 67.13C40.8 68.55 39.63 69.68 38.19 69.68C36.76 69.68 35.58 68.55 35.5 67.13ZM64.64 70.96C65.22 70.61 65.71 70.14 66.08 69.58L66.11 69.59L66.13 69.56L66.14 69.58L66.17 69.57C66.55 70.13 67.04 70.61 67.62 70.96L64.64 70.96ZM42.04 69.58L42.07 69.59L42.18 69.41C42.57 68.75 42.79 68 42.82 67.23C42.82 67.22 42.82 67.21 42.82 67.21L57.59 67.21C57.59 67.22 57.59 67.23 57.59 67.24C57.62 68.01 57.83 68.76 58.22 69.42L58.33 69.6L58.36 69.59C58.74 70.15 59.23 70.63 59.81 70.98L40.6 70.98C41.17 70.61 41.66 70.14 42.04 69.58Z" fill="#FFFFFF" fill-opacity="1.000000" fill-rule="nonzero"/>
		<path id="Vector" d="M39.21 66.99C39.21 66.42 38.75 65.96 38.19 65.96C37.62 65.96 37.16 66.42 37.16 66.99C37.16 67.56 37.62 68.02 38.19 68.02C38.75 68.02 39.21 67.56 39.21 66.99Z" fill="#FFFFFF" fill-opacity="1.000000" fill-rule="nonzero"/>
		<path id="Vector" d="M63.25 66.99C63.25 66.42 62.79 65.96 62.23 65.96C61.66 65.96 61.2 66.42 61.2 66.99C61.2 67.56 61.66 68.02 62.23 68.02C62.79 68.02 63.25 67.56 63.25 66.99Z" fill="#FFFFFF" fill-opacity="1.000000" fill-rule="nonzero"/>
		<path id="Vector" d="M71.06 66.99C71.06 66.42 70.6 65.96 70.04 65.96C69.47 65.96 69.01 66.42 69.01 66.99C69.01 67.56 69.47 68.02 70.04 68.02C70.6 68.02 71.06 67.56 71.06 66.99Z" fill="#FFFFFF" fill-opacity="1.000000" fill-rule="nonzero"/>
	</g>
</svg>
