<svg width="247" height="167" viewBox="0 0 247 167" fill="none" xmlns="http://www.w3.org/2000/svg">
<path d="M162.857 2.18837C161.493 1.58117 160.086 1.02532 158.689 0.520673L199.336 0.792076L222.687 41.8502L222.689 41.8532L246.426 82.9182L223.459 124.705L223.454 124.715L199.212 166.5H153.543C161.083 164.438 167.629 161.15 173.247 156.358C183.263 148.163 188.189 136.545 188.189 122.163C188.189 108.229 183.912 97.3707 175.728 88.7422L175.728 88.7421L175.719 88.7335C167.304 80.2832 155.161 73.3405 138.938 68.3258C127.912 64.2144 119.898 60.4181 115.472 56.9455C111.071 53.1992 108.723 49.0681 108.723 43.3671C108.723 37.4772 110.849 32.6144 115.107 28.7423C119.348 24.8851 125.372 22.9921 133.385 22.9921C138.872 22.9921 144.083 23.5769 148.771 25.0278L148.775 25.0289C153.543 26.466 157.141 27.8856 159.628 29.6844L163.446 52.4173L163.516 52.8345H163.939H185.764H186.264V52.3345V18.2289V18.0288L186.126 17.884C179.909 11.3584 172.019 6.17844 162.857 2.18837ZM21.7424 44.1901H0.5V0.794014H109.097C103.535 3.03329 98.5106 5.9092 93.7786 9.90862L93.7772 9.9098C83.6512 18.532 78.4527 29.6971 78.4527 43.3671C78.4527 57.3079 82.9923 68.0335 91.8393 76.0786L91.842 76.081C100.772 84.0842 113.811 90.726 131.297 96.6155C141.299 100.14 148.137 103.638 152.032 107.522C155.908 111.388 157.919 116.401 157.919 122.604C157.919 128.795 155.788 133.654 151.923 137.226C147.806 140.795 142.034 142.685 134.027 142.685C127.913 142.685 122.326 141.81 117.514 140.071C112.73 138.196 108.619 136.056 105.743 133.387L102.685 109.75L102.629 109.314H102.189H79.5946H79.0946V109.814V144.655V144.834L79.2083 144.972C85.4272 152.539 93.3228 158.166 102.616 162.6C105.996 164.213 109.645 165.512 113.561 166.5H35.0338V147.407L50.3058 143.967L50.696 143.879V143.479V25.8732V25.3732H50.196H23.4933H23.0262L22.9944 25.8392L21.7424 44.1901Z" fill="white" stroke="#C0D4E8"/>
</svg>
