<svg width="1920" height="1460" viewBox="0 0 1920 1460" fill="none" xmlns="http://www.w3.org/2000/svg">
<g opacity="0.5">
<path d="M-2.27441 1527.14C38.1043 1470.61 155.538 1354.6 306.431 1343.49C494.423 1329.65 623.353 1436.63 776.949 1415.18C933.682 1392.43 989.853 1210.15 1159.74 1189.63C1329.62 1169.11 1501.45 1277.93 1653.25 1189.63C1804.22 1101.64 1871.82 1033.4 2003.29 1059.49" stroke="#99B7DF" stroke-width="1.03922"/>
<path d="M-4.54907 1505.35C36.4189 1450.11 153.866 1336.56 304.287 1325.56C491.065 1311.87 620.147 1416.32 772.804 1394.42C931.735 1369.92 988.603 1189.88 1159.97 1169.84C1331.34 1149.8 1499.65 1257.94 1652.69 1169.84C1804.04 1082.35 1872.88 1012.39 2002.59 1036.56" stroke="#98B7DE" stroke-width="1.07843"/>
<path d="M-6.82349 1483.61C34.7338 1429.67 152.194 1318.58 302.143 1307.68C487.707 1294.14 616.941 1396.08 768.659 1373.72C929.787 1347.47 987.353 1169.66 1160.2 1150.1C1333.05 1130.54 1497.86 1238 1652.12 1150.1C1803.87 1063.13 1873.94 991.426 2001.88 1013.68" stroke="#97B6DE" stroke-width="1.11765"/>
<path d="M-9.09814 1461.93C33.0485 1409.29 150.522 1300.66 299.999 1289.86C484.35 1276.48 613.734 1375.89 764.513 1353.08C927.84 1325.08 986.103 1149.51 1160.44 1130.43C1334.77 1111.35 1496.06 1218.12 1651.55 1130.43C1803.7 1043.96 1875 970.528 2001.18 990.872" stroke="#97B6DE" stroke-width="1.15686"/>
<path d="M-11.3726 1440.32C31.3634 1388.97 148.85 1282.8 297.855 1272.1C480.992 1258.88 610.528 1355.76 760.368 1332.5C925.893 1302.75 984.853 1129.41 1160.67 1110.81C1336.48 1092.21 1494.26 1198.3 1650.98 1110.81C1803.52 1024.86 1876.05 949.691 2000.47 968.121" stroke="#96B5DD" stroke-width="1.19608"/>
<path d="M-13.647 1418.76C29.6782 1368.71 147.178 1265 295.712 1254.4C477.634 1241.33 607.322 1335.69 756.223 1311.98C923.945 1280.48 983.603 1109.38 1160.9 1091.26C1338.2 1073.14 1492.46 1178.54 1650.42 1091.26C1803.35 1005.81 1877.11 928.912 1999.76 945.428" stroke="#95B5DD" stroke-width="1.23529"/>
<path d="M-15.9216 1397.27C27.9929 1348.51 145.506 1247.27 293.568 1236.77C474.277 1223.85 604.115 1315.69 752.078 1291.52C921.998 1258.28 982.352 1089.4 1161.13 1071.76C1339.91 1054.13 1490.67 1158.85 1649.85 1071.76C1803.18 986.829 1878.17 908.197 1999.06 922.798" stroke="#95B4DC" stroke-width="1.27451"/>
<path d="M-18.196 1375.83C26.3078 1328.38 143.834 1229.59 291.424 1219.19C470.919 1206.43 600.909 1295.75 747.933 1271.13C920.051 1236.13 981.102 1069.49 1161.36 1052.33C1341.63 1035.18 1488.87 1139.21 1649.28 1052.33C1803 967.907 1879.23 887.542 1998.35 900.229" stroke="#94B3DC" stroke-width="1.31373"/>
<path d="M-20.4707 1354.46C24.6224 1308.3 142.162 1211.98 289.28 1201.68C467.561 1189.07 597.703 1275.86 743.788 1250.79C918.103 1214.05 979.852 1049.64 1161.6 1032.96C1343.34 1016.29 1487.07 1119.64 1648.71 1032.96C1802.83 949.046 1880.29 866.948 1997.65 877.721" stroke="#94B3DC" stroke-width="1.35294"/>
<path d="M-22.7451 1333.15C22.9373 1288.29 140.49 1194.42 287.136 1184.22C464.204 1171.77 594.497 1256.04 739.642 1230.51C916.156 1192.02 978.602 1029.85 1161.83 1013.65C1345.06 997.455 1485.27 1100.12 1648.15 1013.65C1802.65 930.244 1881.34 846.413 1996.94 855.273" stroke="#93B2DB" stroke-width="1.39216"/>
<path d="M-25.0195 1311.9C21.2522 1268.34 138.818 1176.93 284.992 1166.83C460.846 1154.53 591.29 1236.28 735.497 1210.3C914.209 1170.06 977.352 1010.12 1162.06 994.402C1346.77 978.687 1483.48 1080.67 1647.58 994.402C1802.48 911.505 1882.4 825.942 1996.24 832.886" stroke="#92B2DB" stroke-width="1.43137"/>
<path d="M-27.2942 1290.71C19.5668 1248.44 137.146 1159.5 282.848 1149.5C457.488 1137.36 588.084 1216.58 731.352 1190.15C912.261 1148.16 976.102 990.449 1162.29 975.214C1348.49 959.98 1481.68 1061.28 1647.01 975.214C1802.31 892.826 1883.46 805.53 1995.53 810.561" stroke="#92B1DA" stroke-width="1.47059"/>
<path d="M-29.5686 1269.58C17.8817 1228.61 135.474 1142.13 280.705 1132.23C454.131 1120.24 584.878 1196.94 727.207 1170.06C910.314 1126.32 974.852 970.84 1162.53 956.086C1350.2 941.332 1479.88 1041.95 1646.44 956.086C1802.13 874.208 1884.52 785.179 1994.82 788.295" stroke="#91B1DA" stroke-width="1.5098"/>
<path d="M-31.843 1248.51C16.1966 1208.84 133.802 1124.81 278.561 1115.01C450.773 1103.18 581.672 1177.36 723.062 1150.02C908.367 1104.54 973.602 951.291 1162.76 937.018C1351.91 922.744 1478.09 1022.68 1645.88 937.018C1801.96 855.649 1885.58 764.888 1994.12 766.09" stroke="#90B0DA" stroke-width="1.54902"/>
<path d="M-34.1177 1227.49C14.5112 1189.12 132.13 1107.56 276.417 1097.86C447.415 1086.19 578.465 1157.84 718.916 1130.05C906.42 1082.81 972.351 931.799 1162.99 918.007C1353.63 904.214 1476.29 1003.46 1645.31 918.007C1801.79 837.148 1886.64 744.653 1993.41 743.941" stroke="#90B0D9" stroke-width="1.58824"/>
<path d="M-36.3921 1206.49C12.8261 1169.42 130.459 1090.32 274.273 1080.72C444.057 1069.2 575.259 1138.32 714.771 1110.08C904.472 1061.1 971.101 912.32 1163.22 899.007C1355.34 885.695 1474.49 984.259 1644.74 899.007C1801.61 818.658 1887.69 724.431 1992.71 721.805" stroke="#8FAFD9" stroke-width="1.62745"/>
<path d="M-38.6667 1185.49C11.1408 1149.71 128.786 1073.07 272.129 1063.57C440.7 1052.21 572.052 1118.81 710.626 1090.12C902.525 1039.38 969.851 892.838 1163.45 880.006C1357.06 867.174 1472.69 965.055 1644.18 880.006C1801.44 800.166 1888.75 704.206 1992 699.666" stroke="#8EAFD8" stroke-width="1.66667"/>
<path d="M-40.9412 1164.49C9.45566 1130.01 127.115 1055.83 269.986 1046.43C437.342 1035.22 568.846 1099.3 706.481 1070.15C900.578 1017.67 968.601 873.358 1163.69 861.006C1358.77 848.655 1470.9 945.852 1643.61 861.006C1801.26 781.677 1889.81 683.984 1991.29 677.529" stroke="#8EAED8" stroke-width="1.70588"/>
<path d="M-43.2156 1143.49C7.77055 1110.31 125.443 1038.58 267.842 1029.29C433.984 1018.23 565.64 1079.79 702.336 1050.19C898.63 995.959 967.351 853.878 1163.92 842.007C1360.49 830.136 1469.1 926.649 1643.04 842.007C1801.09 763.187 1890.87 663.761 1990.59 655.393" stroke="#8DAED8" stroke-width="1.7451"/>
<path d="M-45.4902 1122.48C6.08519 1090.6 123.771 1021.34 265.698 1012.14C430.627 1001.24 562.434 1060.27 698.19 1030.22C896.683 974.245 966.101 834.397 1164.15 823.007C1362.2 811.616 1467.3 907.446 1642.47 823.007C1800.92 744.696 1891.93 643.538 1989.88 633.255" stroke="#8CADD7" stroke-width="1.78431"/>
<path d="M-47.7646 1101.48C4.40007 1070.9 122.099 1004.1 263.554 994.999C427.269 984.254 559.227 1040.76 694.045 1010.26C894.736 952.531 964.851 814.916 1164.38 804.006C1363.92 793.097 1465.5 888.242 1641.91 804.006C1800.74 726.206 1892.98 623.314 1989.18 611.117" stroke="#8CACD7" stroke-width="1.82353"/>
<path d="M-50.0393 1080.48C2.71471 1051.2 120.427 986.854 261.41 977.856C423.911 967.266 556.021 1021.25 689.9 990.295C892.788 930.818 963.6 795.436 1164.62 785.007C1365.63 774.578 1463.71 869.04 1641.34 785.007C1800.57 707.716 1894.04 603.092 1988.47 588.98" stroke="#8BACD6" stroke-width="1.86275"/>
<path d="M-52.3137 1059.48C1.0296 1031.49 118.755 969.611 259.266 960.713C420.554 950.278 552.815 1001.74 685.755 970.331C890.841 909.105 962.35 775.956 1164.85 766.008C1367.35 756.059 1461.91 849.837 1640.77 766.008C1800.39 689.226 1895.1 582.869 1987.76 566.844" stroke="#8AABD6" stroke-width="1.90196"/>
<path d="M-54.5881 1038.48C-0.655514 1011.79 117.083 952.368 257.123 943.571C417.196 933.291 549.609 982.228 681.61 950.367C888.894 887.392 961.1 756.476 1165.08 747.008C1369.06 737.54 1460.11 830.634 1640.2 747.008C1800.22 670.736 1896.16 562.647 1987.06 544.707" stroke="#8AABD6" stroke-width="1.94118"/>
<path d="M-56.8628 1017.48C-2.34087 992.083 115.411 935.123 254.979 926.426C413.838 916.301 546.402 962.715 677.464 930.401C886.946 865.677 959.85 736.995 1165.31 728.007C1370.78 719.019 1458.31 811.43 1639.64 728.007C1800.05 652.245 1897.22 542.422 1986.35 522.568" stroke="#89AAD5" stroke-width="1.98039"/>
<path d="M-59.1372 996.474C-4.02599 972.379 113.739 917.88 252.835 909.283C410.48 899.313 543.196 943.203 673.319 910.437C884.999 843.965 958.6 717.515 1165.54 709.008C1372.49 700.5 1456.52 792.227 1639.07 709.008C1799.87 633.755 1898.28 522.2 1985.65 500.432" stroke="#88AAD5" stroke-width="2.01961"/>
<path d="M-61.4119 975.473C-5.71135 952.676 112.067 900.637 250.691 892.14C407.123 882.325 539.989 923.692 669.174 890.473C883.052 822.252 957.35 698.035 1165.78 690.008C1374.2 681.982 1454.72 773.025 1638.5 690.008C1799.7 615.265 1899.33 501.977 1984.94 478.295" stroke="#88A9D4" stroke-width="2.05882"/>
<path d="M-63.6863 954.47C-7.39646 932.971 110.395 883.392 248.547 874.995C403.765 865.335 536.783 904.178 665.029 870.507C881.105 800.537 956.1 678.553 1166.01 671.007C1375.92 663.461 1452.92 753.82 1637.93 671.007C1799.53 596.774 1900.39 481.753 1984.24 456.156" stroke="#87A9D4" stroke-width="2.09804"/>
<path d="M-65.9607 933.469C-9.08157 913.267 108.723 866.149 246.404 857.852C400.407 848.347 533.577 884.667 660.884 850.543C879.157 778.824 954.85 659.073 1166.24 652.007C1377.63 644.942 1451.13 734.617 1637.37 652.007C1799.35 578.284 1901.45 461.53 1983.53 434.02" stroke="#86A8D4" stroke-width="2.13725"/>
<path d="M-68.2354 912.468C-10.7669 893.564 107.051 848.906 244.26 840.709C397.05 831.36 530.371 865.155 656.738 830.579C877.21 757.111 953.599 639.593 1166.47 633.008C1379.35 626.423 1449.33 715.415 1636.8 633.008C1799.18 559.794 1902.51 441.308 1982.82 411.883" stroke="#86A8D3" stroke-width="2.17647"/>
<path d="M-70.5098 891.466C-12.452 873.86 105.379 831.663 242.116 823.566C393.692 814.372 527.164 845.644 652.593 810.615C875.263 735.398 952.349 620.113 1166.71 614.009C1381.06 607.904 1447.53 696.212 1636.23 614.009C1799 541.304 1903.57 421.085 1982.12 389.746" stroke="#85A7D3" stroke-width="2.21569"/>
<path d="M-72.7844 870.463C-14.1374 854.155 103.707 814.418 239.972 806.422C390.334 797.382 523.958 826.13 648.448 790.649C873.315 713.683 951.099 600.631 1166.94 595.007C1382.78 589.384 1445.73 677.008 1635.67 595.007C1798.83 522.813 1904.62 400.861 1981.41 367.607" stroke="#84A6D2" stroke-width="2.2549"/>
<path d="M-75.0588 849.462C-15.8225 834.451 102.036 797.175 237.828 789.279C386.977 780.394 520.752 806.619 644.303 770.685C871.368 691.97 949.849 581.151 1167.17 576.008C1384.49 570.865 1443.94 657.805 1635.1 576.008C1798.66 504.323 1905.68 380.638 1980.71 345.471" stroke="#84A6D2" stroke-width="2.29412"/>
<path d="M-77.3333 828.461C-17.5076 814.748 100.364 779.932 235.684 772.136C383.619 763.406 517.546 787.107 640.158 750.722C869.421 670.258 948.599 561.671 1167.4 557.009C1386.21 552.346 1442.14 638.602 1634.53 557.009C1798.48 485.833 1906.74 360.416 1980 323.334" stroke="#83A5D2" stroke-width="2.33333"/>
<path d="M-79.6079 807.46C-19.193 795.044 98.6916 762.689 233.54 754.993C380.261 746.418 514.339 767.596 636.012 730.758C867.473 648.545 947.349 542.192 1167.63 538.009C1387.92 533.827 1440.34 619.4 1633.96 538.009C1798.31 467.344 1907.8 340.193 1979.29 301.197" stroke="#83A5D1" stroke-width="2.37255"/>
<path d="M-81.8823 786.457C-20.8781 775.339 97.0197 745.444 231.397 737.848C376.903 729.429 511.133 748.082 631.867 710.792C865.526 626.83 946.099 522.71 1167.87 519.008C1389.64 515.306 1438.54 600.195 1633.4 519.008C1798.13 448.852 1908.86 319.969 1978.59 279.059" stroke="#82A4D1" stroke-width="2.41176"/>
<path d="M-84.157 765.455C-22.5635 755.635 95.3477 728.201 229.253 720.705C373.546 712.441 507.927 728.571 627.722 690.828C863.579 605.117 944.848 503.23 1168.1 500.009C1391.35 496.787 1436.75 580.993 1632.83 500.009C1797.96 430.362 1909.91 299.746 1977.88 256.922" stroke="#81A4D0" stroke-width="2.45098"/>
<path d="M-86.4314 744.453C-24.2486 735.931 93.6758 710.957 227.109 703.561C370.188 695.452 504.72 709.058 623.577 670.863C861.631 583.403 943.598 483.749 1168.33 481.008C1393.07 478.268 1434.95 561.789 1632.26 481.008C1797.79 411.872 1910.97 279.523 1977.18 234.784" stroke="#81A3D0" stroke-width="2.4902"/>
<path d="M-88.7058 723.451C-25.9337 716.226 92.004 693.713 224.965 686.418C366.83 678.463 501.514 689.546 619.432 650.898C859.684 561.689 942.348 464.268 1168.56 462.008C1394.78 459.748 1433.15 542.585 1631.69 462.008C1797.61 393.381 1912.03 259.3 1976.47 212.646" stroke="#80A3D0" stroke-width="2.52941"/>
<path d="M-90.9805 702.45C-27.619 696.523 90.3319 676.47 222.821 669.275C363.473 661.475 498.308 670.035 615.286 630.934C857.737 539.976 941.098 444.788 1168.8 443.008C1396.49 441.229 1431.35 523.383 1631.13 443.008C1797.44 374.891 1913.09 239.077 1975.76 190.51" stroke="#7FA2CF" stroke-width="2.56863"/>
<path d="M-93.2549 681.449C-29.3042 676.82 88.66 659.227 220.678 652.132C360.115 644.487 495.101 650.523 611.141 610.97C855.789 518.263 939.848 425.308 1169.03 424.009C1398.21 422.71 1429.56 504.18 1630.56 424.009C1797.27 356.401 1914.15 218.855 1975.06 168.373" stroke="#7FA2CF" stroke-width="2.60784"/>
<path d="M-95.5293 660.446C-30.9893 657.115 86.9882 641.983 218.534 634.988C356.757 627.499 491.895 631.011 606.996 591.005C853.842 496.549 938.598 405.827 1169.26 405.009C1399.92 404.19 1427.76 484.977 1629.99 405.009C1797.09 337.911 1915.21 198.631 1974.35 146.235" stroke="#7EA1CF" stroke-width="2.64706"/>
<path d="M-97.804 639.444C-32.6746 637.411 85.3161 624.739 216.39 617.844C353.4 610.51 488.689 611.498 602.851 571.04C851.895 474.836 937.348 386.346 1169.49 386.008C1401.64 385.67 1425.96 465.773 1629.42 386.008C1796.92 319.42 1916.26 178.408 1973.65 124.098" stroke="#7DA1CE" stroke-width="2.68627"/>
<path d="M-100.078 618.443C-34.3597 617.707 83.6443 607.496 214.246 600.701C350.042 593.522 485.483 591.987 598.706 551.076C849.948 453.123 936.098 366.866 1169.73 367.009C1403.35 367.152 1424.17 446.57 1628.86 367.009C1796.74 300.93 1917.32 158.185 1972.94 101.961" stroke="#7DA0CE" stroke-width="2.72549"/>
<path d="M-102.353 597.442C-36.0451 598.004 81.9722 590.253 212.102 583.558C346.684 576.534 482.276 572.475 594.56 531.112C848 431.41 934.847 347.387 1169.96 348.01C1405.07 348.633 1422.37 427.368 1628.29 348.01C1796.57 282.441 1918.38 137.963 1972.24 79.8242" stroke="#7C9FCD" stroke-width="2.76471"/>
<path d="M-104.627 576.439C-37.7302 578.298 80.3003 573.008 209.958 566.414C343.327 559.544 479.07 552.962 590.415 511.146C846.053 409.695 933.597 327.905 1170.19 329.008C1406.78 330.112 1420.57 408.163 1627.72 329.008C1796.4 263.949 1919.44 117.738 1971.53 57.6855" stroke="#7B9FCD" stroke-width="2.80392"/>
<path d="M-106.902 555.438C-39.4153 558.595 78.6285 555.765 207.815 549.271C339.969 542.556 475.864 533.45 586.27 491.182C844.106 387.982 932.347 308.425 1170.42 310.009C1408.5 311.593 1418.77 388.961 1627.16 310.009C1796.22 245.459 1920.5 97.5155 1970.82 35.5488" stroke="#7B9ECD" stroke-width="2.84314"/>
<path d="M-109.177 534.436C-41.1007 538.891 76.9564 538.522 205.671 532.128C336.611 525.569 472.657 513.939 582.125 471.218C842.158 366.269 931.097 288.945 1170.65 291.01C1410.21 293.074 1416.98 369.758 1626.59 291.01C1796.05 226.97 1921.55 77.293 1970.12 13.4121" stroke="#7A9ECC" stroke-width="2.88235"/>
<path d="M-111.451 513.435C-42.7858 519.188 75.2846 521.279 203.527 514.985C333.253 508.581 469.451 494.427 577.98 451.254C840.211 344.556 929.847 269.465 1170.89 272.01C1411.93 274.555 1415.18 350.555 1626.02 272.01C1795.88 208.48 1922.61 57.0705 1969.41 -8.72461" stroke="#799DCC" stroke-width="2.92157"/>
<path d="M-113.726 492.432C-44.4712 499.482 73.6125 504.034 201.383 497.84C329.896 491.591 466.245 474.914 573.834 431.288C838.264 322.841 928.597 249.983 1171.12 253.009C1413.64 256.035 1413.38 331.351 1625.45 253.009C1795.7 189.988 1923.67 36.8461 1968.71 -30.8633" stroke="#799DCB" stroke-width="2.96078"/>
<path d="M-116 471.431C23.6874 488.127 356.388 499.481 569.689 411.324C836.316 301.129 927.347 230.503 1171.35 234.009C1415.35 237.516 1411.58 312.148 1624.89 234.009C1795.53 171.498 1924.73 16.6236 1968 -53" stroke="#789CCB" stroke-width="3"/>
<path d="M0 1549C39.7894 1491.16 157.209 1372.69 308.574 1361.49C497.781 1347.49 626.56 1457 781.094 1436C935.629 1414.99 991.103 1230.49 1159.51 1209.49C1327.91 1188.49 1503.25 1297.99 1653.82 1209.49C1804.39 1120.98 1870.76 1054.48 2004 1082.48" stroke="#99B8DF"/>
</g>
</svg>
